<svg width="25" height="24" viewBox="0 0 25 24" fill="none" xmlns="http://www.w3.org/2000/svg">
<path fill-rule="evenodd" clip-rule="evenodd" d="M21.2987 16.7109C21.2987 16.1243 21.6384 15.3053 22.0526 14.8905L24.1889 12.7543C24.6037 12.3394 24.6037 11.6607 24.1889 11.2457L22.0526 9.10957C21.6384 8.69473 21.2987 7.87568 21.2987 7.28911V4.26831C21.2987 3.68122 20.8188 3.20183 20.2321 3.20183H17.2113C16.6242 3.20183 15.8051 2.86216 15.3902 2.44731L13.254 0.311148C12.8397 -0.103716 12.1603 -0.103716 11.7461 0.311148L9.60981 2.44731C9.19492 2.86216 8.37585 3.20183 7.78874 3.20183H4.76788C4.18129 3.20183 3.70138 3.68122 3.70138 4.26831V7.28911C3.70138 7.87568 3.36169 8.69473 2.94736 9.10957L0.811148 11.2457C0.396284 11.6607 0.396284 12.3394 0.811148 12.7543L2.94736 14.8905C3.36169 15.3053 3.70138 16.1243 3.70138 16.7109V19.7322C3.70138 20.3188 4.18129 20.7988 4.76788 20.7988H7.78874C8.37585 20.7988 9.19492 21.1379 9.60981 21.5527L11.7461 23.6889C12.1603 24.1037 12.8397 24.1037 13.254 23.6889L15.3902 21.5527C15.8051 21.1379 16.6242 20.7988 17.2113 20.7988H20.2321C20.8188 20.7988 21.2987 20.3188 21.2987 19.7322V16.7109ZM8.52212 11.4616C8.22476 11.1732 7.74994 11.1805 7.46158 11.4779C7.17323 11.7753 7.18054 12.2501 7.4779 12.5385L10.5716 15.5385C10.8674 15.8253 11.3393 15.8197 11.6282 15.5261L17.5345 9.52609C17.8251 9.23101 17.8213 8.7561 17.5261 8.46552C17.231 8.17494 16.7561 8.17868 16.4655 8.47387L11.0815 13.9434L8.52212 11.4616Z" fill="#00A88E"/>
</svg>
