<svg width="301" height="28" viewBox="0 0 301 28" fill="none" xmlns="http://www.w3.org/2000/svg">
<path d="M13.7373 1.69123H9.30562C9.4254 2.40988 9.5186 3.79395 9.5186 4.45936C9.5186 5.36433 9.492 6.24268 9.45208 7.08111H5.14019C3.99568 7.08111 2.42523 6.98794 1.16093 6.86817V10.8207C2.45184 10.701 4.11545 10.701 5.14019 10.701H9.11937C8.45395 15.279 6.95012 18.6593 4.14207 21.4275C2.93101 22.6651 1.42713 23.6899 0.189453 24.3819L3.68955 27.2166C9.07942 23.3838 11.9407 18.6593 13.0586 10.701H19.8326C19.8326 13.9615 19.4466 19.9769 18.5682 21.88C18.2355 22.5986 17.8097 22.9313 16.8515 22.9313C15.6804 22.9313 14.1099 22.7849 12.6327 22.5054L13.1119 26.5379C14.5625 26.6576 16.3724 26.7774 18.0892 26.7774C20.1653 26.7774 21.3098 25.9922 21.9752 24.4618C23.2661 21.3875 23.6387 12.9767 23.7585 9.72947C23.7585 9.39676 23.8783 8.61155 23.9714 8.13245L21.3497 6.86817C20.6311 6.98794 19.8459 7.08111 19.0873 7.08111H13.4179C13.4845 6.20276 13.5111 5.29778 13.5377 4.3662C13.5644 3.64755 13.6308 2.38327 13.724 1.67793L13.7373 1.69123ZM52.9702 5.43087L50.4949 3.59433C49.896 3.80727 48.685 3.98026 47.3941 3.98026H36.7607C35.8557 3.98026 34.0192 3.8871 33.2074 3.76733V8.05261C33.8462 8.02599 35.4964 7.83967 36.7607 7.83967H46.9815C46.3161 9.98231 44.4795 12.9634 42.4966 15.2258C39.6619 18.3932 34.9907 22.0663 30.1465 23.8762L33.2474 27.1367C37.3729 25.1804 41.3787 22.0396 44.5727 18.6726C47.4073 21.4142 50.2021 24.4884 52.1718 27.2033L55.6053 24.2222C53.822 22.053 50.1755 18.1935 47.1945 15.5984C49.2173 12.8835 50.9075 9.66292 51.9189 7.30734C52.1851 6.70847 52.7307 5.7769 52.9702 5.44419V5.43087ZM77.6439 7.41381C77.6439 6.36246 78.4823 5.48411 79.547 5.48411C80.6116 5.48411 81.4767 6.36246 81.4767 7.41381C81.4767 8.46517 80.5983 9.31689 79.547 9.31689C78.4956 9.31689 77.6439 8.47848 77.6439 7.41381ZM75.661 7.41381C75.661 9.58307 77.3777 11.2998 79.547 11.2998C81.7162 11.2998 83.4596 9.58307 83.4596 7.41381C83.4596 5.24456 81.7162 3.50116 79.547 3.50116C77.3777 3.50116 75.661 5.24456 75.661 7.41381ZM56.9228 17.262L60.5427 21.0016C61.0883 20.2164 61.807 19.1651 62.499 18.1936C63.7101 16.5699 65.8394 13.5889 67.0239 12.0717C67.9022 10.9804 68.5277 10.9272 69.4992 11.8854C70.5905 13.0033 73.2655 15.9178 75.0089 18.0072C76.7922 20.0833 79.3474 23.1842 81.3702 25.6861L84.684 22.1328C82.3683 19.6575 79.2941 16.3171 77.2712 14.1744C75.4613 12.2181 73.1457 9.80931 71.1228 7.90622C68.7672 5.71034 66.9972 6.04306 65.2139 8.14578C63.1378 10.6211 60.7823 13.5756 59.4248 14.9596C58.4932 15.8646 57.8278 16.53 56.9228 17.2487V17.262ZM101.16 25.1804L103.688 27.2565C103.954 27.017 104.327 26.7109 104.979 26.3516C108.359 24.6348 112.698 21.3742 115.2 18.127L112.884 14.8132C110.861 17.7411 107.88 20.1233 105.445 21.1746V5.41757C105.445 4.06012 105.631 2.88898 105.658 2.79582H101.173C101.2 2.88898 101.413 4.03349 101.413 5.39094V22.9579C101.413 23.7697 101.293 24.6215 101.173 25.1937L101.16 25.1804ZM87.2126 24.7279L90.8857 27.1634C93.4409 24.8743 95.3439 21.9199 96.2489 18.513C97.0607 15.4653 97.1539 9.11729 97.1539 5.55066C97.1539 4.28637 97.3402 2.95552 97.3669 2.80913H92.9352C93.1215 3.5677 93.2013 4.37951 93.2013 5.57726C93.2013 9.22374 93.1747 14.9197 92.3229 17.5148C91.4845 20.07 89.8476 22.8515 87.1993 24.7146L87.2126 24.7279ZM141.271 5.41757L138.796 3.58101C138.197 3.79394 136.986 3.96696 135.695 3.96696H125.061C124.157 3.96696 122.32 3.8738 121.508 3.75403V8.03931C122.147 8.01269 123.797 7.82637 125.061 7.82637H135.282C134.617 9.96901 132.78 12.9501 130.797 15.2125C127.963 18.3799 123.291 22.053 118.447 23.8629L121.548 27.1234C125.674 25.1671 129.679 22.0263 132.873 18.6593C135.708 21.4009 138.503 24.4751 140.472 27.19L143.906 24.2089C142.123 22.0397 138.476 18.1802 135.495 15.5851C137.518 12.8702 139.195 9.64962 140.22 7.29404C140.486 6.69517 141.031 5.76357 141.271 5.43087V5.41757ZM157.241 4.32627C157.334 4.80537 157.547 5.80351 157.787 7.0678C155.191 7.49367 152.876 7.82636 151.824 7.94614C150.893 8.06591 149.988 8.13246 149.016 8.15908L149.828 12.3113C150.853 12.0451 151.638 11.8854 152.596 11.6725C153.528 11.5261 155.857 11.1268 158.505 10.7143C158.771 12.2447 159.104 13.9349 159.41 15.5718C156.363 16.0509 153.568 16.5034 152.184 16.6897C151.226 16.8095 149.868 16.9958 149.043 17.0224L149.881 21.0548C150.573 20.8685 151.598 20.6689 152.889 20.416C154.18 20.1765 157.015 19.6974 160.089 19.1784C160.568 21.7069 160.967 23.783 161.114 24.6614C161.3 25.5397 161.38 26.5911 161.54 27.709L165.878 26.9238C165.612 25.9656 165.306 24.8743 165.093 23.9694C164.907 23.0378 164.494 21.0149 164.002 18.5396C166.65 18.1137 169.099 17.7278 170.536 17.4882C171.68 17.3019 172.918 17.1023 173.73 17.0357L172.918 13.0566C172.133 13.2961 171.015 13.5356 169.844 13.7752C168.486 14.0414 166.011 14.4672 163.31 14.9197C162.977 13.2562 162.671 11.6059 162.378 10.1021C164.88 9.71616 167.169 9.34352 168.407 9.1439C169.312 9.02413 170.523 8.8378 171.175 8.78457L170.456 4.832C169.737 5.04493 168.593 5.28447 167.621 5.47079C166.53 5.68372 164.241 6.04305 161.686 6.46891C161.446 5.11147 161.26 4.11334 161.207 3.70078C161.06 2.98213 160.967 1.9574 160.874 1.34522L156.629 2.03724C156.842 2.75589 157.055 3.44792 157.228 4.32627H157.241ZM179.173 11.8854V16.6099C180.291 16.5167 182.314 16.4635 184.031 16.4635H200.214C201.478 16.4635 203.022 16.5833 203.74 16.6099V11.8854C202.955 11.952 201.638 12.0717 200.214 12.0717H184.031C182.46 12.0717 180.264 11.9786 179.173 11.8854ZM237.583 3.75403C237.583 2.79583 238.368 2.01064 239.327 2.01064C240.285 2.01064 241.043 2.79583 241.043 3.75403C241.043 4.71222 240.258 5.47079 239.327 5.47079C238.395 5.47079 237.583 4.68561 237.583 3.75403ZM235.72 3.75403C235.72 3.96696 235.747 4.13996 235.787 4.32627C235.148 4.41943 234.496 4.44606 234.07 4.44606H220.123C219.125 4.44606 217.408 4.32628 216.543 4.2065V8.45186C217.301 8.38532 218.739 8.33209 220.123 8.33209H234.136C233.75 10.9272 232.606 14.3341 230.61 16.8361C228.174 19.9103 224.767 22.5321 218.792 23.9161L222.079 27.536C227.442 25.7926 231.475 22.8116 234.19 19.1917C236.718 15.8513 238.022 11.1801 238.714 8.22562C238.808 7.95946 238.861 7.65335 238.954 7.32065C239.074 7.34726 239.22 7.34727 239.34 7.34727C241.296 7.34727 242.92 5.72365 242.92 3.76733C242.92 1.811 241.296 0.147461 239.34 0.147461C237.384 0.147461 235.72 1.77108 235.72 3.76733V3.75403ZM250.213 2.72928V6.61531C251.091 6.54876 252.382 6.52216 253.354 6.52216H264.892C265.983 6.52216 267.394 6.54876 268.206 6.61531V2.72928C267.367 2.84905 265.89 2.87567 264.945 2.87567H253.34C252.316 2.87567 251.051 2.84905 250.2 2.72928H250.213ZM270.734 11.4729L268.059 9.80932C267.634 9.99563 266.822 10.1154 265.863 10.1154H250.945C250.013 10.1154 248.709 10.0222 247.445 9.92909V13.8417C248.709 13.722 250.213 13.6953 250.945 13.6953H265.504C264.958 15.3855 264.027 17.2487 262.403 18.9122C260.114 21.2678 256.494 23.2507 251.983 24.1823L254.964 27.5892C258.823 26.498 262.683 24.4618 265.717 21.0815C267.98 18.5795 269.27 15.6517 270.175 12.7371C270.295 12.4044 270.535 11.8588 270.748 11.4729H270.734ZM298.176 5.41757L295.701 3.58101C295.102 3.79394 293.891 3.96696 292.6 3.96696H281.967C281.062 3.96696 279.225 3.8738 278.413 3.75403V8.03931C279.052 8.01269 280.702 7.82637 281.967 7.82637H292.187C291.522 9.96901 289.685 12.9501 287.702 15.2125C284.868 18.3799 280.197 22.053 275.352 23.8629L278.453 27.1234C282.579 25.1671 286.585 22.0263 289.779 18.6593C292.613 21.4009 295.408 24.4751 297.378 27.19L300.811 24.2089C299.028 22.0397 295.381 18.1802 292.4 15.5851C294.423 12.8702 296.1 9.64962 297.125 7.29404C297.391 6.69517 297.937 5.76357 298.176 5.43087V5.41757Z" fill="#1D1D1B"/>
</svg>
