<svg width="361" height="28" viewBox="0 0 361 28" fill="none" xmlns="http://www.w3.org/2000/svg">
<path d="M13.8408 1.69123H9.40914C9.52891 2.40988 9.62212 3.79395 9.62212 4.45936C9.62212 5.36433 9.59544 6.24268 9.55551 7.08111H5.24363C4.09911 7.08111 2.52874 6.98794 1.26445 6.86817V10.8207C2.55536 10.701 4.21889 10.701 5.24363 10.701H9.2228C8.55739 15.279 7.05356 18.6593 4.2455 21.4275C3.03444 22.6651 1.53064 23.6899 0.292969 24.3819L3.79306 27.2166C9.18294 23.3838 12.0443 18.6593 13.1622 10.701H19.9361C19.9361 13.9615 19.55 19.9769 18.6717 21.88C18.339 22.5986 17.9132 22.9313 16.955 22.9313C15.7839 22.9313 14.2134 22.7849 12.7362 22.5054L13.2153 26.5379C14.6659 26.6576 16.4758 26.7774 18.1926 26.7774C20.2687 26.7774 21.4133 25.9922 22.0787 24.4618C23.3696 21.3875 23.7422 12.9767 23.862 9.72947C23.862 9.39676 23.9818 8.61155 24.0749 8.13245L21.4532 6.86817C20.7346 6.98794 19.9493 7.08111 19.1907 7.08111H13.5214C13.5879 6.20276 13.6146 5.29778 13.6413 4.3662C13.6679 3.64755 13.7344 2.38327 13.8276 1.67793L13.8408 1.69123ZM53.0738 5.43087L50.5985 3.59433C49.9996 3.80727 48.7885 3.98026 47.4976 3.98026H36.8642C35.9593 3.98026 34.1226 3.8871 33.3108 3.76733V8.05261C33.9496 8.02599 35.5999 7.83967 36.8642 7.83967H47.0851C46.4197 9.98231 44.5831 12.9634 42.6002 15.2258C39.7655 18.3932 35.0942 22.0663 30.25 23.8762L33.3508 27.1367C37.4764 25.1804 41.4822 22.0396 44.6762 18.6726C47.5109 21.4142 50.3056 24.4884 52.2752 27.2033L55.7088 24.2222C53.9255 22.053 50.279 18.1935 47.2979 15.5984C49.3208 12.8835 51.011 9.66292 52.0224 7.30734C52.2886 6.70847 52.8343 5.7769 53.0738 5.44419V5.43087ZM77.7473 7.41381C77.7473 6.36246 78.5858 5.48411 79.6505 5.48411C80.7152 5.48411 81.5802 6.36246 81.5802 7.41381C81.5802 8.46517 80.7019 9.31689 79.6505 9.31689C78.5992 9.31689 77.7473 8.47848 77.7473 7.41381ZM75.7644 7.41381C75.7644 9.58307 77.4813 11.2998 79.6505 11.2998C81.8198 11.2998 83.5631 9.58307 83.5631 7.41381C83.5631 5.24456 81.8198 3.50116 79.6505 3.50116C77.4813 3.50116 75.7644 5.24456 75.7644 7.41381ZM57.0264 17.262L60.6462 21.0016C61.1918 20.2164 61.9104 19.1651 62.6025 18.1936C63.8135 16.5699 65.9429 13.5889 67.1273 12.0717C68.0057 10.9804 68.6311 10.9272 69.6027 11.8854C70.6939 13.0033 73.3689 15.9178 75.1123 18.0072C76.8956 20.0833 79.4509 23.1842 81.4737 25.6861L84.7875 22.1328C82.4719 19.6575 79.3977 16.3171 77.3748 14.1744C75.5649 12.2181 73.2493 9.80931 71.2264 7.90622C68.8708 5.71034 67.1007 6.04306 65.3174 8.14578C63.2413 10.6211 60.8858 13.5756 59.5283 14.9596C58.5967 15.8646 57.9313 16.53 57.0264 17.2487V17.262ZM101.263 25.1804L103.792 27.2565C104.058 27.017 104.431 26.7109 105.083 26.3516C108.463 24.6348 112.802 21.3742 115.304 18.127L112.988 14.8132C110.965 17.7411 107.984 20.1233 105.548 21.1746V5.41757C105.548 4.06012 105.735 2.88898 105.761 2.79582H101.277C101.303 2.88898 101.516 4.03349 101.516 5.39094V22.9579C101.516 23.7697 101.396 24.6215 101.277 25.1937L101.263 25.1804ZM87.3161 24.7279L90.9892 27.1634C93.5444 24.8743 95.4474 21.9199 96.3524 18.513C97.1642 15.4653 97.2574 9.11729 97.2574 5.55066C97.2574 4.28637 97.4438 2.95552 97.4704 2.80913H93.0386C93.2249 3.5677 93.3049 4.37951 93.3049 5.57726C93.3049 9.22374 93.2782 14.9197 92.4265 17.5148C91.588 20.07 89.9511 22.8515 87.3028 24.7146L87.3161 24.7279ZM141.375 5.41757L138.899 3.58101C138.3 3.79394 137.089 3.96696 135.798 3.96696H125.165C124.26 3.96696 122.424 3.8738 121.612 3.75403V8.03931C122.25 8.01269 123.901 7.82637 125.165 7.82637H135.386C134.72 9.96901 132.884 12.9501 130.901 15.2125C128.066 18.3799 123.395 22.053 118.551 23.8629L121.651 27.1234C125.777 25.1671 129.783 22.0263 132.977 18.6593C135.812 21.4009 138.606 24.4751 140.576 27.19L144.01 24.2089C142.226 22.0397 138.58 18.1802 135.599 15.5851C137.622 12.8702 139.298 9.64962 140.323 7.29404C140.589 6.69517 141.135 5.76357 141.375 5.43087V5.41757ZM157.345 4.32627C157.438 4.80537 157.651 5.80351 157.89 7.0678C155.295 7.49367 152.979 7.82636 151.928 7.94614C150.996 8.06591 150.091 8.13246 149.12 8.15908L149.932 12.3113C150.956 12.0451 151.742 11.8854 152.7 11.6725C153.632 11.5261 155.96 11.1268 158.609 10.7143C158.875 12.2447 159.208 13.9349 159.514 15.5718C156.466 16.0509 153.671 16.5034 152.287 16.6897C151.329 16.8095 149.972 16.9958 149.147 17.0224L149.985 21.0548C150.677 20.8685 151.702 20.6689 152.993 20.416C154.284 20.1765 157.118 19.6974 160.193 19.1784C160.672 21.7069 161.071 23.783 161.217 24.6614C161.404 25.5397 161.483 26.5911 161.643 27.709L165.982 26.9238C165.715 25.9656 165.409 24.8743 165.196 23.9694C165.01 23.0378 164.597 21.0149 164.105 18.5396C166.753 18.1137 169.202 17.7278 170.64 17.4882C171.784 17.3019 173.022 17.1023 173.834 17.0357L173.022 13.0566C172.237 13.2961 171.119 13.5356 169.947 13.7752C168.59 14.0414 166.115 14.4672 163.413 14.9197C163.08 13.2562 162.774 11.6059 162.482 10.1021C164.983 9.71616 167.273 9.34352 168.51 9.1439C169.415 9.02413 170.626 8.8378 171.278 8.78457L170.56 4.832C169.841 5.04493 168.696 5.28447 167.725 5.47079C166.647 5.68372 164.345 6.04305 161.789 6.46891C161.55 5.11147 161.364 4.11334 161.31 3.70078C161.164 2.98213 161.071 1.9574 160.978 1.34522L156.732 2.03724C156.945 2.75589 157.158 3.44792 157.331 4.32627H157.345ZM179.277 11.8854V16.6099C180.395 16.5167 182.417 16.4635 184.134 16.4635H200.317C201.581 16.4635 203.125 16.5833 203.844 16.6099V11.8854C203.059 11.952 201.741 12.0717 200.317 12.0717H184.134C182.564 12.0717 180.368 11.9786 179.277 11.8854ZM237.487 3.75403C237.487 2.79583 238.272 2.01064 239.231 2.01064C240.189 2.01064 240.947 2.79583 240.947 3.75403C240.947 4.71222 240.162 5.47079 239.231 5.47079C238.299 5.47079 237.487 4.68561 237.487 3.75403ZM235.624 3.75403C235.624 3.96696 235.651 4.13996 235.691 4.32627C235.052 4.41943 234.4 4.44606 233.974 4.44606H220.027C219.029 4.44606 217.312 4.32628 216.447 4.2065V8.45186C217.205 8.38532 218.643 8.33209 220.027 8.33209H234.04C233.654 10.9272 232.51 14.3341 230.514 16.8361C228.078 19.9103 224.671 22.5321 218.696 23.9161L221.983 27.536C227.346 25.7926 231.379 22.8116 234.094 19.1917C236.622 15.8513 237.926 11.1801 238.618 8.22562C238.712 7.95946 238.765 7.65335 238.858 7.32065C238.978 7.34726 239.124 7.34727 239.244 7.34727C241.2 7.34727 242.824 5.72365 242.824 3.76733C242.824 1.811 241.2 0.147461 239.244 0.147461C237.288 0.147461 235.624 1.77108 235.624 3.76733V3.75403ZM249.278 24.6348L252.14 27.1101C252.832 26.6577 253.497 26.4447 253.923 26.2983C261.03 23.9827 267.271 20.3894 271.397 15.452L269.254 12.0451C265.395 16.7429 258.674 20.6024 253.763 22.013V6.34914C253.763 5.17801 253.883 4.08673 254.069 2.91559H249.332C249.518 3.79394 249.664 5.20463 249.664 6.34914V22.6785C249.664 23.3705 249.638 23.8895 249.278 24.6348ZM282.123 2.25018L280.713 5.8035C284.958 6.34914 293.515 8.27885 297.015 9.56976L298.546 5.8035C294.753 4.47267 286.076 2.72928 282.123 2.25018ZM280.739 10.3549L279.355 14.0014C283.84 14.7201 291.559 16.4768 295.019 17.7943L296.496 14.0281C292.703 12.6972 285.051 11.0736 280.739 10.3549ZM279.209 18.9788L277.705 22.7716C282.523 23.4903 292.051 25.5797 296.11 27.2565L297.761 23.4903C293.635 21.9598 284.346 19.7772 279.195 18.9654L279.209 18.9788ZM332.455 5.44419L330.073 3.20838C329.501 3.3947 327.837 3.47454 326.999 3.47454H310.763C309.499 3.47454 308.234 3.35477 307.09 3.16846V7.36057C308.5 7.24079 309.499 7.14765 310.763 7.14765H326.467C325.681 8.62488 323.339 11.2732 320.917 12.7504L324.058 15.2524C327.012 13.1497 329.874 9.34352 331.284 7.00126C331.55 6.54878 332.123 5.83012 332.455 5.43087V5.44419ZM320.159 9.51653H315.793C315.94 10.4747 316.006 11.2998 316.006 12.2314C316.006 17.1688 315.288 20.3628 311.455 23.0245C310.337 23.8363 309.259 24.3553 308.287 24.688L311.814 27.5493C320.012 23.1443 320.159 17.0091 320.159 9.52983V9.51653ZM348.412 3.12853L343.621 2.13041C343.501 3.15515 343.315 4.08674 342.902 5.6305C342.024 8.75796 339.442 17.0224 337.686 21.4807C337.419 21.4807 337.113 21.5073 336.874 21.5073C335.876 21.5339 334.585 21.5339 333.56 21.5339L334.252 25.939C335.21 25.8192 336.328 25.6728 337.087 25.5797C340.88 25.1937 350.009 24.2222 354.893 23.65C355.465 24.9409 355.945 26.1785 356.344 27.2033L360.416 25.3934C359.032 22.013 355.958 16.1175 353.815 12.8569L350.049 14.3874C351.047 15.7182 352.165 17.7278 353.216 19.897C350.169 20.2564 345.897 20.7354 342.224 21.1081C343.727 17.0756 346.176 9.41005 347.134 6.46891C347.587 5.13808 348.039 4.0335 348.425 3.12853H348.412Z" fill="#1D1D1B"/>
</svg>
