<svg width="392" height="30" viewBox="0 0 392 30" fill="none" xmlns="http://www.w3.org/2000/svg">
<path d="M13.9277 2.27756H9.49609C9.61587 2.99621 9.70901 4.38028 9.70901 5.0457C9.70901 5.95066 9.68241 6.82902 9.64248 7.66744H5.33058C4.18606 7.66744 2.61569 7.57428 1.35139 7.4545V11.4071C2.6423 11.2873 4.30584 11.2873 5.33058 11.2873H9.30978C8.64436 15.8654 7.14051 19.2457 4.33246 22.0138C3.1214 23.2515 1.61756 24.2762 0.379883 24.9683L3.87997 27.8029C9.26984 23.9701 12.1311 19.2457 13.249 11.2873H20.023C20.023 14.5478 19.637 20.5632 18.7587 22.4663C18.426 23.1849 18.0001 23.5177 17.0419 23.5177C15.8708 23.5177 14.3004 23.3713 12.8232 23.0918L13.3023 27.1242C14.7529 27.244 16.5628 27.3638 18.2796 27.3638C20.3557 27.3638 21.5002 26.5786 22.1656 25.0481C23.4565 21.9739 23.8292 13.563 23.9489 10.3158C23.9489 9.98307 24.0687 9.19789 24.1618 8.71879L21.5401 7.4545C20.8215 7.57428 20.0363 7.66744 19.2777 7.66744H13.6084C13.6749 6.78909 13.7015 5.88411 13.7281 4.95253C13.7547 4.23388 13.8213 2.9696 13.9144 2.26426L13.9277 2.27756ZM53.1607 6.0172L50.6853 4.18064C50.0865 4.39358 48.8754 4.5666 47.5845 4.5666H36.9511C36.0462 4.5666 34.2096 4.47343 33.3978 4.35366V8.63894C34.0366 8.61233 35.6869 8.426 36.9511 8.426H47.1719C46.5065 10.5686 44.67 13.5497 42.687 15.8121C39.8524 18.9795 35.1811 22.6526 30.3369 24.4625L33.4378 27.7231C37.5633 25.7667 41.5691 22.626 44.7631 19.259C47.5978 22.0005 50.3926 25.0747 52.3622 27.7896L55.7957 24.8085C54.0124 22.6393 50.366 18.7799 47.3849 16.1848C49.4078 13.4699 51.0979 10.2493 52.1093 7.89368C52.3755 7.2948 52.9211 6.36321 53.1607 6.0305V6.0172ZM77.8343 8.00015C77.8343 6.94879 78.6728 6.07044 79.7374 6.07044C80.8021 6.07044 81.6671 6.94879 81.6671 8.00015C81.6671 9.0515 80.7888 9.90323 79.7374 9.90323C78.6861 9.90323 77.8343 9.06481 77.8343 8.00015ZM75.8514 8.00015C75.8514 10.1694 77.5682 11.8862 79.7374 11.8862C81.9067 11.8862 83.6501 10.1694 83.6501 8.00015C83.6501 5.83089 81.9067 4.0875 79.7374 4.0875C77.5682 4.0875 75.8514 5.83089 75.8514 8.00015ZM57.1133 17.8483L60.7331 21.5879C61.2788 20.8027 61.9974 19.7514 62.6895 18.7799C63.9005 17.1563 66.0298 14.1752 67.2143 12.6581C68.0926 11.5668 68.7181 11.5135 69.6896 12.4717C70.7676 13.5896 73.4559 16.5042 75.1993 18.5936C76.9826 20.6697 79.5378 23.7705 81.5606 26.2725L84.8744 22.7192C82.5588 20.2438 79.4846 16.9034 77.4617 14.7608C75.6518 12.8045 73.3361 10.3956 71.3132 8.49255C68.9577 6.29668 67.1877 6.62939 65.4044 8.73211C63.3283 11.2075 60.9727 14.1619 59.6152 15.546C58.6836 16.4509 58.0182 17.1163 57.1133 17.835V17.8483ZM101.35 25.7667L103.879 27.8429C104.145 27.6033 104.518 27.2972 105.17 26.9379C108.55 25.2211 112.888 21.9606 115.39 18.7134L113.075 15.3996C111.052 18.3274 108.071 20.7096 105.635 21.761V6.0039C105.635 4.64645 105.822 3.47532 105.848 3.38216H101.363C101.39 3.47532 101.603 4.61983 101.603 5.97728V23.5443C101.603 24.3561 101.483 25.2078 101.363 25.7801L101.35 25.7667ZM87.403 25.3143L91.0761 27.7497C93.6313 25.4607 95.5344 22.5062 96.4393 19.0993C97.2512 16.0517 97.3443 9.7036 97.3443 6.13697C97.3443 4.87268 97.5306 3.54185 97.5573 3.39546H93.1256C93.3119 4.15403 93.3917 4.96584 93.3917 6.16359C93.3917 9.81007 93.3651 15.506 92.5134 18.1012C91.675 20.6564 90.0381 23.4378 87.3897 25.301L87.403 25.3143ZM141.461 6.0039L138.986 4.16734C138.387 4.38028 137.176 4.5533 135.885 4.5533H125.252C124.347 4.5533 122.51 4.46013 121.699 4.34036V8.62564C122.337 8.59902 123.988 8.4127 125.252 8.4127H135.473C134.807 10.5553 132.971 13.5364 130.988 15.7988C128.153 18.9662 123.482 22.6393 118.638 24.4492L121.738 27.7098C125.864 25.7534 129.87 22.6127 133.064 19.2457C135.899 21.9872 138.693 25.0614 140.663 27.7763L144.096 24.7952C142.313 22.626 138.667 18.7666 135.686 16.1715C137.708 13.4566 139.399 10.236 140.423 7.88038C140.69 7.2815 141.235 6.34991 141.475 6.0172L141.461 6.0039ZM157.431 4.91261C157.525 5.39171 157.737 6.38983 157.977 7.65412C155.382 8.07998 153.066 8.4127 152.015 8.53247C151.083 8.65225 150.178 8.71879 149.207 8.74541L150.019 12.8976C151.043 12.6314 151.829 12.4717 152.787 12.2588C153.718 12.1124 156.047 11.7132 158.696 11.3006C158.962 12.8311 159.295 14.5212 159.601 16.1581C156.553 16.6372 153.758 17.0897 152.374 17.2761C151.416 17.3958 150.059 17.5821 149.247 17.6088L150.085 21.6412C150.777 21.4549 151.802 21.2552 153.093 21.0024C154.384 20.7628 157.218 20.2837 160.293 19.7647C160.772 22.2933 161.171 24.3694 161.317 25.2477C161.504 26.1261 161.584 27.1774 161.743 28.2953L166.082 27.5102C165.816 26.552 165.51 25.4607 165.297 24.5557C165.11 23.6241 164.698 21.6013 164.205 19.1259C166.854 18.7 169.302 18.3141 170.74 18.0745C171.884 17.8882 173.122 17.6886 173.934 17.6221L173.122 13.6429C172.337 13.8824 171.219 14.122 170.048 14.3615C168.69 14.6277 166.215 15.0536 163.513 15.506C163.181 13.8425 162.875 12.1923 162.582 10.6884C165.084 10.3025 167.373 9.92986 168.61 9.73023C169.515 9.61046 170.726 9.42414 171.379 9.3709L170.66 5.41833C169.941 5.63126 168.797 5.87081 167.825 6.05712C166.734 6.27006 164.445 6.62938 161.89 7.05525C161.65 5.6978 161.464 4.69967 161.411 4.28711C161.264 3.56846 161.171 2.54374 161.078 1.93156L156.833 2.62357C157.045 3.34222 157.258 4.03426 157.431 4.91261ZM179.363 12.4717V17.1962C180.481 17.103 182.504 17.0498 184.221 17.0498H200.404C201.668 17.0498 203.212 17.1696 203.931 17.1962V12.4717C203.146 12.5383 201.815 12.6581 200.404 12.6581H184.221C182.651 12.6581 180.455 12.5649 179.363 12.4717ZM238.479 5.99058L236.004 4.15404C235.405 4.36698 234.194 4.53998 232.903 4.53998H222.27C221.365 4.53998 219.528 4.44681 218.716 4.32704V8.61232C219.355 8.5857 221.005 8.3994 222.27 8.3994H232.49C231.825 10.542 229.988 13.5231 228.005 15.7855C225.171 18.9529 220.5 22.626 215.655 24.4359L218.756 27.6965C222.882 25.7401 226.888 22.5994 230.082 19.2324C232.916 21.9739 235.711 25.0481 237.681 27.763L241.114 24.7819C239.331 22.6127 235.684 18.7533 232.703 16.1581C234.726 13.4432 236.403 10.2226 237.428 7.86706C237.694 7.26818 238.24 6.33661 238.479 6.0039V5.99058ZM260.624 2.55705L256.259 1.19959C255.993 2.22433 255.354 3.60839 254.875 4.32704C253.371 6.94878 250.563 11.0744 245.293 14.3615L248.553 16.8635C251.601 14.7608 254.396 11.8596 256.512 9.06482H265.136C264.683 10.928 263.392 13.5497 261.822 15.719C259.919 14.4547 258.029 13.217 256.432 12.312L253.757 15.0536C255.288 16.0118 257.284 17.3692 259.24 18.8198C256.738 21.3218 253.398 23.7572 248.181 25.3542L251.681 28.4018C256.379 26.6185 259.812 24.0633 262.474 21.2552C263.712 22.2534 264.83 23.1849 265.641 23.9435L268.503 20.5366C267.624 19.8179 266.453 18.9396 265.162 18.008C267.305 15.0003 268.809 11.7664 269.621 9.33098C269.887 8.5724 270.286 7.7606 270.619 7.18834L267.544 5.28524C266.879 5.49817 265.854 5.61795 264.923 5.61795H258.801C259.16 4.95253 259.919 3.59508 260.664 2.54373L260.624 2.55705ZM280.879 3.51523L278.045 6.52292C280.241 8.05338 284.007 11.3405 285.577 13.0307L288.651 9.90323C286.908 8.06668 282.982 4.92591 280.879 3.51523ZM277.113 23.5842L279.642 27.5634C283.887 26.8447 287.773 25.1546 290.821 23.318C295.678 20.3902 299.684 16.238 301.973 12.1656L299.618 7.9203C297.714 11.9926 293.802 16.5973 288.651 19.6449C285.724 21.3883 281.811 22.9321 277.113 23.5975V23.5842ZM327.219 1.67869L324.837 2.63689C325.502 3.59509 326.221 4.92593 326.793 6.07044C326.128 6.25676 325.263 6.33661 324.438 6.33661H318.289C318.648 5.67119 319.434 4.31375 320.152 3.26239L315.787 1.90493C315.521 2.92967 314.882 4.31373 314.43 5.03238C312.899 7.65412 310.091 11.7797 304.821 15.0402L308.082 17.5688C311.129 15.4528 313.924 12.5649 316.04 9.77016H324.664C324.211 11.6333 322.92 14.2284 321.377 16.4243C319.447 15.1334 317.544 13.8957 315.947 12.9908L313.259 15.7323C314.789 16.7304 316.785 18.0879 318.742 19.4985C316.266 22.0271 312.926 24.4759 307.709 26.0729L311.209 29.1205C315.907 27.3371 319.314 24.7819 321.962 21.9739C323.2 22.972 324.318 23.9036 325.13 24.6622L328.017 21.2552C327.113 20.5366 325.941 19.6582 324.637 18.7267C326.806 15.719 328.31 12.485 329.095 10.0496C329.362 9.29105 329.761 8.47925 330.094 7.88038L327.898 6.52292L329.588 5.80426C329.042 4.68636 327.964 2.75667 327.206 1.67869H327.219ZM330.772 0.294617L328.39 1.29274C329.229 2.43726 330.2 4.18066 330.826 5.44495L333.208 4.39358C332.662 3.34223 331.544 1.43913 330.772 0.294617ZM336.655 12.4717V17.1962C337.772 17.103 339.795 17.0498 341.512 17.0498H357.695C358.959 17.0498 360.503 17.1696 361.222 17.1962V12.4717C360.437 12.5383 359.106 12.6581 357.695 12.6581H341.512C339.942 12.6581 337.746 12.5649 336.655 12.4717ZM384.565 4.00765L382.036 5.059C383.154 6.62938 383.819 7.82714 384.684 9.73023L387.306 8.55909C386.614 7.20165 385.403 5.27194 384.565 4.00765ZM388.517 2.34411L386.015 3.51523C387.133 5.01907 387.852 6.13698 388.823 8.04007L391.352 6.80239C390.66 5.44494 389.395 3.54186 388.517 2.34411ZM372.547 23.9834C372.547 25.1546 372.427 26.9911 372.241 28.1756H376.965C376.819 26.9379 376.659 24.8352 376.659 23.9834V15.4528C379.92 16.5441 384.431 18.2875 387.572 19.9377L389.262 15.7456C386.494 14.3881 380.679 12.2455 376.673 11.0477V6.64269C376.673 5.3784 376.819 4.04756 376.939 2.9962H372.241C372.454 4.08749 372.547 5.55141 372.547 6.64269V23.9701V23.9834Z" fill="#1D1D1B"/>
</svg>
