<svg width="24" height="24" viewBox="0 0 24 24" fill="none" xmlns="http://www.w3.org/2000/svg">
<path fill-rule="evenodd" clip-rule="evenodd" d="M8.00008 6C8.00008 3.79086 9.79094 2 12.0001 2C14.2092 2 16.0001 3.79086 16.0001 6C16.0001 8.20914 14.2092 10 12.0001 10C9.79094 10 8.00008 8.20914 8.00008 6ZM12.0001 4C10.8955 4 10.0001 4.89543 10.0001 6C10.0001 7.10457 10.8955 8 12.0001 8C13.1047 8 14.0001 7.10457 14.0001 6C14.0001 4.89543 13.1047 4 12.0001 4Z" fill="#00A88E"/>
<path fill-rule="evenodd" clip-rule="evenodd" d="M6.26973 12.0768C6.98456 11.4088 7.94458 11 9.00008 11H15.0001C16.0556 11 17.0156 11.4088 17.7304 12.0768C17.9203 12.0267 18.1196 12 18.3252 12H20.6752C21.9592 12 23.0002 13.0409 23.0002 14.325V15.7C23.0002 16.418 22.4181 17 21.7002 17H19.0001V19C19.0001 20.1046 18.1047 21 17.0001 21H7.00008C5.89551 21 5.00008 20.1046 5.00008 19V17H2.3C1.58203 17 1 16.418 1 15.7V14.325C1 13.0409 2.04094 12 3.325 12H5.675C5.88057 12 6.0799 12.0267 6.26973 12.0768ZM10.7193 13L10.0986 15.4828C9.97081 15.994 10.1206 16.5347 10.4932 16.9073L11.293 17.7071C11.4805 17.8946 11.7349 18 12.0001 18C12.2653 18 12.5197 17.8946 12.7072 17.7071L13.507 16.9073C13.8796 16.5347 14.0294 15.994 13.9016 15.4828L13.2809 13H15.0001C16.1047 13 17.0001 13.8954 17.0001 15V19H7.00008V15C7.00008 13.8954 7.89551 13 9.00008 13H10.7193Z" fill="#00A88E"/>
<path d="M3.00001 9C3.00001 10.1046 3.89544 11 5.00001 11C6.10458 11 7.00001 10.1046 7.00001 9C7.00001 7.89543 6.10458 7 5.00001 7C3.89544 7 3.00001 7.89543 3.00001 9Z" fill="#00A88E"/>
<path d="M21.0001 9C21.0001 10.1046 20.1047 11 19.0001 11C17.8956 11 17.0001 10.1046 17.0001 9C17.0001 7.89543 17.8956 7 19.0001 7C20.1047 7 21.0001 7.89543 21.0001 9Z" fill="#00A88E"/>
</svg>
