<svg width="24" height="24" viewBox="0 0 24 24" fill="none" xmlns="http://www.w3.org/2000/svg">
<path fill-rule="evenodd" clip-rule="evenodd" d="M12 2C17.5229 2 22 6.50451 22 12.0611C22 17.0828 18.3432 21.2451 13.5626 22V14.9694L15.8926 14.9694L15.8927 14.9694L16.3361 12.0611H16.3359H13.5626V10.1747C13.5626 9.379 13.9501 8.6026 15.1923 8.6026H16.4531H16.4533V6.12663C16.4533 6.12663 15.3089 5.93012 14.2148 5.93012C14.2036 5.93012 14.1925 5.93015 14.1813 5.93022C11.916 5.94372 10.4375 7.33524 10.4375 9.84452V12.0611H7.89857H7.89844V14.9694L7.89857 14.9694L10.4375 14.9694V22C5.65684 21.2452 2 17.0828 2 12.0611C2 6.50451 6.47715 2 12 2Z" fill="#00A88E"/>
</svg>
