<svg width="24" height="24" viewBox="0 0 24 24" fill="none" xmlns="http://www.w3.org/2000/svg">
<path fill-rule="evenodd" clip-rule="evenodd" d="M18.538 6.66203C18.538 7.32484 18.0006 7.86203 17.338 7.86203C16.6753 7.86203 16.138 7.32484 16.138 6.66203C16.138 5.99922 16.6753 5.46203 17.338 5.46203C18.0008 5.46203 18.538 5.99922 18.538 6.66203ZM12 15.3333C10.1591 15.3333 8.66672 13.8409 8.66672 12C8.66672 10.1591 10.1591 8.66672 12 8.66672C13.8409 8.66672 15.3333 10.1591 15.3333 12C15.3333 13.8409 13.8409 15.3333 12 15.3333ZM12 6.86484C9.16391 6.86484 6.86484 9.16391 6.86484 12C6.86484 14.8361 9.16391 17.1352 12 17.1352C14.8361 17.1352 17.1352 14.8361 17.1352 12C17.1352 9.16391 14.8361 6.86484 12 6.86484ZM12 3.80187C14.6702 3.80187 14.9864 3.81203 16.0408 3.86016C17.0158 3.90469 17.5453 4.0675 17.8977 4.20453C18.3644 4.38594 18.6975 4.60266 19.0475 4.95266C19.3975 5.3025 19.6142 5.63563 19.7956 6.1025C19.9325 6.45484 20.0955 6.98437 20.14 7.95937C20.1881 9.01391 20.1983 9.33016 20.1983 12.0003C20.1983 14.6705 20.1881 14.9867 20.14 16.0411C20.0955 17.0161 19.9327 17.5456 19.7956 17.898C19.6142 18.3647 19.3975 18.6978 19.0475 19.0478C18.6977 19.3978 18.3645 19.6145 17.8977 19.7959C17.5453 19.9328 17.0158 20.0958 16.0408 20.1403C14.9864 20.1884 14.6702 20.1986 12 20.1986C9.32969 20.1986 9.01344 20.1884 7.95906 20.1403C6.98406 20.0958 6.45453 19.933 6.10219 19.7959C5.63547 19.6145 5.30234 19.3978 4.95234 19.0478C4.6025 18.698 4.38563 18.3648 4.20422 17.898C4.06734 17.5456 3.90437 17.0161 3.85984 16.0411C3.81172 14.9866 3.80156 14.6703 3.80156 12.0003C3.80156 9.33016 3.81172 9.01391 3.85984 7.95937C3.90437 6.98437 4.06719 6.45484 4.20422 6.1025C4.38563 5.63578 4.60234 5.30266 4.95234 4.95266C5.30219 4.60266 5.63531 4.38594 6.10219 4.20453C6.45453 4.06766 6.98406 3.90469 7.95906 3.86016C9.01359 3.81203 9.32984 3.80187 12 3.80187ZM12 2C9.28422 2 8.94359 2.01156 7.87703 2.06016C6.81266 2.10875 6.08562 2.27781 5.44969 2.525C4.79203 2.78047 4.23437 3.1225 3.67844 3.67844C3.1225 4.23437 2.78047 4.79203 2.525 5.44969C2.27781 6.08578 2.10875 6.81266 2.06016 7.87703C2.01156 8.94359 2 9.28422 2 12C2 14.7158 2.01156 15.0564 2.06016 16.123C2.10875 17.1873 2.27781 17.9142 2.525 18.5503C2.78047 19.208 3.1225 19.7656 3.67844 20.3216C4.23437 20.8775 4.79203 21.2194 5.44969 21.475C6.08578 21.7222 6.81266 21.8912 7.87703 21.9398C8.94359 21.9884 9.28422 22 12 22C14.7158 22 15.0564 21.9884 16.123 21.9398C17.1873 21.8912 17.9142 21.7222 18.5503 21.475C19.208 21.2194 19.7656 20.8775 20.3216 20.3216C20.8775 19.7656 21.2194 19.208 21.475 18.5503C21.7222 17.9142 21.8912 17.1873 21.9398 16.123C21.9884 15.0564 22 14.7158 22 12C22 9.28422 21.9884 8.94359 21.9398 7.87703C21.8912 6.81266 21.7222 6.08578 21.475 5.44969C21.2194 4.79203 20.8775 4.23437 20.3216 3.67844C19.7656 3.1225 19.208 2.78062 18.5503 2.525C17.9142 2.27781 17.1873 2.10875 16.123 2.06016C15.0564 2.01156 14.7158 2 12 2Z" fill="#00A88E"/>
</svg>
