<svg width="24" height="24" viewBox="0 0 24 24" fill="none" xmlns="http://www.w3.org/2000/svg">
<path d="M2.32383 7.30843H6.47187V19.9986H2.32383V7.30843ZM4.40556 1C4.88133 1 5.34642 1.13423 5.74201 1.38571C6.1376 1.63718 6.44593 1.99462 6.628 2.41281C6.81007 2.83101 6.85771 3.29118 6.76489 3.73513C6.67207 4.17908 6.44297 4.58688 6.10654 4.90695C5.77012 5.22702 5.34149 5.445 4.87486 5.5333C4.40823 5.62161 3.92455 5.57629 3.48499 5.40307C3.04543 5.22984 2.66974 4.9365 2.40541 4.56014C2.14108 4.18377 2 3.74129 2 3.28864C2.00082 2.68189 2.25452 2.10022 2.70547 1.67118C3.15643 1.24215 3.76781 1.00078 4.40556 1Z" fill="#00A88E"/>
<path d="M9.07784 7.30832H13.0486V9.04827H13.1025C13.6577 8.05066 15.0069 7.0017 17.027 7.0017C21.2213 7.0017 22 9.62777 22 13.0461V20H17.8597V13.8309C17.8597 12.3565 17.8365 10.464 15.7085 10.464C13.5497 10.464 13.2259 12.0705 13.2259 13.7209V20H9.08555V7.30979L9.07784 7.30832Z" fill="#00A88E"/>
</svg>
