<svg width="24" height="24" viewBox="0 0 24 24" fill="none" xmlns="http://www.w3.org/2000/svg">
<path d="M22.7827 8.23568C22.7827 8.23568 22.5674 6.76268 21.9084 6.11948C21.0719 5.27005 20.1343 5.26612 19.7048 5.21604C16.626 5 12.0087 5 12.0087 5H11.9954C11.9954 5 7.37811 5 4.29923 5.21604C3.86872 5.26514 2.9322 5.26907 2.09464 6.11948C1.43561 6.76661 1.22036 8.23568 1.22036 8.23568C1.0833 9.38167 1.00974 10.5339 1 11.6874V13.3057C1.00971 14.4593 1.08326 15.6115 1.22036 16.7574C1.22036 16.7574 1.43459 18.2304 2.09464 18.8736C2.9322 19.7231 4.03297 19.6966 4.52061 19.7849C6.28041 19.9489 12.0005 20 12.0005 20C12.0005 20 16.6229 19.9931 19.7018 19.7771C20.1313 19.727 21.0688 19.7231 21.9054 18.8736C22.5644 18.2265 22.7796 16.7574 22.7796 16.7574C22.9167 15.6115 22.9903 14.4593 23 13.3057V11.6874C22.9913 10.5339 22.9187 9.38172 22.7827 8.23568V8.23568ZM9.73165 15.2668V9.2766L15.6752 12.2825L9.73165 15.2668Z" fill="#00A88E"/>
</svg>
