<svg width="167" height="182" viewBox="0 0 167 182" fill="none" xmlns="http://www.w3.org/2000/svg">
<g clip-path="url(#clip0_35_2862)">
<g clip-path="url(#clip1_35_2862)">
<path d="M4.3877 53.233V121.424C4.38595 124.679 5.24534 127.876 6.87865 130.692C8.51197 133.508 10.8611 135.841 13.6876 137.455L73.6397 171.706C76.4283 173.3 79.5847 174.138 82.7967 174.138C86.0087 174.138 89.1651 173.3 91.9538 171.706L151.909 137.455C154.734 135.84 157.082 133.507 158.715 130.691C160.348 127.876 161.207 124.678 161.206 121.424V53.233C161.206 49.9789 160.347 46.7824 158.714 43.9675C157.081 41.1525 154.734 38.8192 151.909 37.204L91.9538 2.95048C89.1651 1.35666 86.0087 0.518311 82.7967 0.518311C79.5847 0.518311 76.4283 1.35666 73.6397 2.95048L13.6876 37.204C10.8617 38.8184 8.513 41.1515 6.87974 43.9665C5.24647 46.7816 4.38673 49.9785 4.3877 53.233" fill="url(#paint0_linear_35_2862)"/>
<mask id="mask0_35_2862" style="mask-type:alpha" maskUnits="userSpaceOnUse" x="4" y="0" width="158" height="175">
<path d="M161.207 121.423L161.207 53.2326C161.209 49.9776 160.349 46.7799 158.716 43.9643C157.083 41.1487 154.734 38.8152 151.907 37.2008L91.955 2.95008C89.1664 1.35627 86.01 0.517918 82.798 0.517918C79.586 0.517919 76.4296 1.35627 73.6409 2.95008L13.686 37.2008C10.8604 38.8161 8.51221 41.1498 6.87946 43.9653C5.24671 46.7808 4.3875 49.978 4.38896 53.2327L4.38897 121.423C4.3883 124.677 5.24786 127.874 6.88056 130.689C8.51325 133.504 10.8611 135.837 13.686 137.452L73.641 171.706C76.4296 173.3 79.586 174.138 82.798 174.138C86.01 174.138 89.1664 173.3 91.9551 171.706L151.907 137.452C154.733 135.838 157.082 133.505 158.715 130.69C160.348 127.875 161.208 124.678 161.207 121.423" fill="url(#paint1_linear_35_2862)"/>
</mask>
<g mask="url(#mask0_35_2862)">
<mask id="mask1_35_2862" style="mask-type:alpha" maskUnits="userSpaceOnUse" x="4" y="0" width="158" height="175">
<path d="M4.39161 121.424L4.39161 53.2331C4.38986 49.978 5.24925 46.7804 6.88257 43.9648C8.51588 41.1492 10.865 38.8157 13.6915 37.2013L73.6436 2.95059C76.4323 1.35678 79.5886 0.518432 82.8006 0.518434C86.0126 0.518436 89.169 1.35679 91.9577 2.9506L151.913 37.2013C154.738 38.8166 157.086 41.1503 158.719 43.9658C160.352 46.7813 161.211 49.9785 161.21 53.2332L161.21 121.424C161.21 124.678 160.351 127.874 158.718 130.689C157.085 133.504 154.738 135.838 151.913 137.453L91.9577 171.706C89.169 173.3 86.0126 174.138 82.8006 174.138C79.5886 174.138 76.4322 173.3 73.6436 171.706L13.6915 137.453C10.8656 135.838 8.5169 133.505 6.88364 130.69C5.25038 127.875 4.39064 124.678 4.39161 121.424" fill="url(#paint2_linear_35_2862)"/>
</mask>
<g mask="url(#mask1_35_2862)">
<mask id="mask2_35_2862" style="mask-type:alpha" maskUnits="userSpaceOnUse" x="4" y="0" width="158" height="175">
<path d="M161.211 53.2328L161.211 121.423C161.213 124.678 160.353 127.876 158.72 130.692C157.087 133.507 154.738 135.841 151.911 137.455L91.9591 171.706C89.1704 173.3 86.014 174.138 82.802 174.138C79.59 174.138 76.4336 173.3 73.6449 171.706L13.69 137.455C10.8644 135.84 8.51621 133.506 6.88346 130.691C5.25071 127.875 4.3915 124.678 4.39295 121.423L4.39292 53.2328C4.39224 49.9786 5.2518 46.7821 6.88449 43.9672C8.51719 41.1523 10.865 38.819 13.69 37.2038L73.6449 2.95024C76.4335 1.35642 79.5899 0.518071 82.8019 0.518071C86.0139 0.518071 89.1703 1.35642 91.959 2.95024L151.911 37.2038C154.737 38.8182 157.086 41.1512 158.719 43.9663C160.352 46.7813 161.212 49.9782 161.211 53.2328" fill="url(#paint3_linear_35_2862)"/>
</mask>
<g mask="url(#mask2_35_2862)">
<mask id="mask3_35_2862" style="mask-type:alpha" maskUnits="userSpaceOnUse" x="4" y="0" width="158" height="175">
<path d="M4.39257 53.2325L4.39256 121.423C4.39081 124.678 5.2502 127.876 6.88351 130.691C8.51683 133.507 10.8659 135.841 13.6924 137.455L73.6445 171.706C76.4332 173.3 79.5896 174.138 82.8016 174.138C86.0136 174.138 89.17 173.3 91.9586 171.706L151.914 137.455C154.739 135.84 157.087 133.506 158.72 130.691C160.353 127.875 161.212 124.678 161.211 121.423L161.211 53.2326C161.211 49.9784 160.352 46.7819 158.719 43.967C157.086 41.1521 154.739 38.8188 151.914 37.2035L91.9587 2.95C89.17 1.35619 86.0136 0.517837 82.8016 0.517836C79.5896 0.517835 76.4332 1.35619 73.6445 2.95L13.6924 37.2035C10.8666 38.8179 8.51787 41.151 6.88461 43.966C5.25135 46.7811 4.3916 49.978 4.39257 53.2325" fill="url(#paint4_linear_35_2862)"/>
</mask>
<g mask="url(#mask3_35_2862)">
<mask id="mask4_35_2862" style="mask-type:alpha" maskUnits="userSpaceOnUse" x="4" y="0" width="158" height="175">
<path d="M4.39062 53.2328L4.39061 121.423C4.38886 124.678 5.24825 127.876 6.88156 130.692C8.51487 133.507 10.864 135.841 13.6905 137.455L73.6426 171.706C76.4312 173.3 79.5876 174.138 82.7996 174.138C86.0116 174.138 89.168 173.3 91.9567 171.706L151.912 137.455C154.737 135.84 157.085 133.506 158.718 130.691C160.351 127.875 161.21 124.678 161.209 121.423L161.209 53.2328C161.209 49.9787 160.35 46.7822 158.717 43.9672C157.084 41.1523 154.737 38.819 151.912 37.2038L91.9567 2.95025C89.168 1.35643 86.0116 0.518081 82.7996 0.51808C79.5876 0.51808 76.4313 1.35643 73.6426 2.95025L13.6905 37.2038C10.8646 38.8182 8.51592 41.1512 6.88266 43.9663C5.2494 46.7813 4.38965 49.9782 4.39062 53.2328" fill="url(#paint5_linear_35_2862)"/>
</mask>
<g mask="url(#mask4_35_2862)">
<path opacity="0.3" d="M4.39062 53.2328L4.39061 121.423C4.38886 124.678 5.24825 127.876 6.88156 130.692C8.51487 133.507 10.864 135.841 13.6905 137.455L73.6426 171.706C76.4312 173.3 79.5876 174.138 82.7996 174.138C86.0116 174.138 89.168 173.3 91.9567 171.706L151.912 137.455C154.737 135.84 157.085 133.506 158.718 130.691C160.351 127.875 161.21 124.678 161.209 121.423L161.209 53.2328C161.209 49.9787 160.35 46.7822 158.717 43.9672C157.084 41.1523 154.737 38.819 151.912 37.2038L91.9567 2.95025C89.168 1.35643 86.0117 0.518081 82.7997 0.51808C79.5877 0.51808 76.4313 1.35643 73.6426 2.95025L13.6905 37.2038C10.8646 38.8182 8.51592 41.1512 6.88266 43.9663C5.2494 46.7813 4.38965 49.9782 4.39062 53.2328Z" fill="#280055"/>
</g>
</g>
</g>
</g>
</g>
<path d="M25.3897 62.3074V112.35C25.3884 114.739 26.0176 117.086 27.2134 119.152C28.4092 121.219 30.1291 122.931 32.1985 124.116L76.092 149.251C78.1337 150.421 80.4446 151.036 82.7963 151.036C85.1479 151.036 87.4589 150.421 89.5006 149.251L133.396 124.116C135.465 122.93 137.184 121.218 138.38 119.152C139.575 117.085 140.204 114.739 140.203 112.35V62.3074C140.203 59.9193 139.574 57.5734 138.379 55.5076C137.183 53.4419 135.464 51.7295 133.396 50.5441L89.5006 25.4065C87.4589 24.2368 85.1479 23.6216 82.7963 23.6216C80.4446 23.6216 78.1337 24.2368 76.092 25.4065L32.1985 50.5441C30.1295 51.7289 28.41 53.4411 27.2142 55.507C26.0184 57.5728 25.3889 59.919 25.3897 62.3074" fill="url(#paint6_linear_35_2862)"/>
<path d="M79.4799 49.5116L51.6445 65.5369C49.5672 66.735 48.2793 68.969 48.2793 71.3809V103.28C48.2793 105.686 49.5672 107.926 51.6445 109.124L79.4799 125.149C80.4874 125.73 81.6351 126.033 82.7931 126.033C83.9564 126.033 85.0989 125.725 86.1064 125.149L113.942 109.124C116.019 107.926 117.307 105.692 117.307 103.28V71.3809C117.307 68.9743 116.019 66.735 113.942 65.5369L86.1064 49.5116C85.0989 48.9309 83.9512 48.6274 82.7931 48.6274C81.6299 48.6274 80.4874 48.9309 79.4799 49.5116Z" fill="url(#paint7_linear_35_2862)"/>
<path d="M82.7958 50.6518C83.6059 50.6518 84.4056 50.8663 85.1119 51.2692L112.947 67.2944C114.401 68.1315 115.3 69.6959 115.3 71.3806V103.274C115.3 104.959 114.401 106.523 112.947 107.355L85.1119 123.38C84.4108 123.783 83.6059 123.998 82.7958 123.998C81.9856 123.998 81.1859 123.783 80.4796 123.38L52.6442 107.355C51.1953 106.523 50.2917 104.959 50.2917 103.274V71.3806C50.2917 69.6959 51.1953 68.1315 52.6442 67.2944L80.4796 51.2692C81.1807 50.8663 81.9856 50.6518 82.7958 50.6518ZM82.7958 46.7227C81.3313 46.7227 79.8616 47.1046 78.5426 47.8632L50.7071 63.8833C48.0378 65.4214 46.3916 68.2833 46.3916 71.3806V103.274C46.3916 106.371 48.0378 109.233 50.7071 110.771L78.5426 126.797C79.8616 127.555 81.3261 127.932 82.7958 127.932C84.2602 127.932 85.7299 127.555 87.049 126.797L114.884 110.771C117.554 109.233 119.2 106.377 119.2 103.274V71.3806C119.2 68.2833 117.554 65.4214 114.884 63.8833L87.0438 47.8632C85.7299 47.1046 84.2602 46.7227 82.7958 46.7227Z" fill="black"/>
<path d="M72.3945 103.045H78.2472V67.6772H72.3945V103.045ZM97.1816 76.8331H89.8903L81.145 88.4845V91.3986L89.8955 103.034H97.1816L86.977 89.9389L97.1816 76.8331Z" fill="black"/>
</g>
</g>
<defs>
<linearGradient id="paint0_linear_35_2862" x1="147.341" y1="9.40849" x2="36.2744" y2="136.7" gradientUnits="userSpaceOnUse">
<stop stop-color="#7218FF"/>
<stop offset="1" stop-color="#B07EFF"/>
</linearGradient>
<linearGradient id="paint1_linear_35_2862" x1="110.141" y1="13.3967" x2="29.2269" y2="146.393" gradientUnits="userSpaceOnUse">
<stop offset="0.0847715" stop-opacity="0"/>
<stop offset="0.299135"/>
</linearGradient>
<linearGradient id="paint2_linear_35_2862" x1="55.4572" y1="13.3972" x2="136.372" y2="146.394" gradientUnits="userSpaceOnUse">
<stop offset="0.0904884" stop-opacity="0"/>
<stop offset="0.299135"/>
</linearGradient>
<linearGradient id="paint3_linear_35_2862" x1="155.376" y1="134.978" x2="69.1065" y2="5.87033" gradientUnits="userSpaceOnUse">
<stop offset="0.00851842" stop-opacity="0"/>
<stop offset="0.173492"/>
</linearGradient>
<linearGradient id="paint4_linear_35_2862" x1="10.2271" y1="134.978" x2="96.4971" y2="5.87012" gradientUnits="userSpaceOnUse">
<stop offset="0.00851842" stop-opacity="0"/>
<stop offset="0.173492"/>
</linearGradient>
<linearGradient id="paint5_linear_35_2862" x1="4.39062" y1="88.7897" x2="161.209" y2="88.7897" gradientUnits="userSpaceOnUse">
<stop offset="0.0372058" stop-opacity="0"/>
<stop offset="0.107364" stop-opacity="0.3"/>
<stop offset="0.179472"/>
<stop offset="0.822593"/>
<stop offset="0.891777" stop-opacity="0.3"/>
<stop offset="0.961935" stop-opacity="0"/>
</linearGradient>
<linearGradient id="paint6_linear_35_2862" x1="130.052" y1="30.1458" x2="48.5176" y2="123.371" gradientUnits="userSpaceOnUse">
<stop stop-color="#7218FF"/>
<stop offset="1" stop-color="#B07EFF"/>
</linearGradient>
<linearGradient id="paint7_linear_35_2862" x1="70.3085" y1="121.882" x2="95.6059" y2="52.8928" gradientUnits="userSpaceOnUse">
<stop stop-color="#23D1AE"/>
<stop offset="1" stop-color="#7EFF33"/>
</linearGradient>
<clipPath id="clip0_35_2862">
<rect width="166.088" height="181.446" fill="white" transform="translate(0.0429688 0.517334)"/>
</clipPath>
<clipPath id="clip1_35_2862">
<rect width="169.618" height="181.733" fill="white" transform="translate(-1.58105 0.517578)"/>
</clipPath>
</defs>
</svg>
