<svg width="369" height="65" viewBox="0 0 369 65" fill="none" xmlns="http://www.w3.org/2000/svg">
<rect width="369" height="54" fill="#8233FF" fill-opacity="0.96"/>
<path d="M132.006 16.908C132.006 17.676 132.63 18.3 133.398 18.3C134.166 18.3 134.79 17.676 134.79 16.908C134.79 16.14 134.166 15.516 133.398 15.516C132.63 15.516 132.006 16.14 132.006 16.908ZM130.518 16.908C130.518 15.324 131.814 14.028 133.398 14.028C134.982 14.028 136.278 15.324 136.278 16.908C136.278 18.492 134.982 19.788 133.398 19.788C131.814 19.788 130.518 18.492 130.518 16.908ZM133.446 18.804C133.206 19.26 133.038 19.956 132.918 20.46C132.366 22.812 131.31 26.556 129.294 29.22C127.134 32.1 123.942 34.476 119.646 35.844L117.03 32.964C121.806 31.86 124.518 29.772 126.438 27.348C128.046 25.356 128.958 22.62 129.27 20.556C127.806 20.556 119.886 20.556 118.086 20.556C116.982 20.556 115.854 20.628 115.23 20.676V17.268C115.95 17.364 117.294 17.484 118.086 17.484C119.886 17.484 127.854 17.484 129.198 17.484C129.678 17.484 130.446 17.46 131.07 17.292L133.446 18.804ZM142.086 16.092C142.734 16.188 143.766 16.236 144.582 16.236C146.094 16.236 152.406 16.236 153.798 16.236C154.566 16.236 155.742 16.188 156.39 16.092V19.212C155.766 19.164 154.638 19.116 153.75 19.116C152.43 19.116 145.998 19.116 144.582 19.116C143.79 19.116 142.782 19.14 142.086 19.212V16.092ZM158.43 23.076C158.262 23.388 158.046 23.82 157.974 24.06C157.23 26.388 156.198 28.74 154.422 30.708C151.998 33.42 148.926 35.028 145.854 35.916L143.454 33.204C147.078 32.436 149.934 30.876 151.782 28.98C153.054 27.684 153.822 26.172 154.23 24.852C153.03 24.852 144.798 24.852 142.662 24.852C142.062 24.852 140.862 24.876 139.854 24.948V21.828C140.886 21.924 141.894 21.996 142.662 21.996C144.294 21.996 152.886 21.996 154.518 21.996C155.31 21.996 155.958 21.9 156.294 21.732L158.43 23.076ZM180.258 18.252C180.066 18.516 179.634 19.236 179.418 19.74C178.434 22.02 176.658 25.284 174.594 27.684C171.906 30.78 168.282 33.756 164.562 35.508L162.066 32.916C165.954 31.476 169.65 28.548 171.906 26.052C173.49 24.252 174.954 21.876 175.506 20.172C174.498 20.172 168.378 20.172 167.346 20.172C166.362 20.172 165.042 20.292 164.514 20.34V16.908C165.162 17.004 166.65 17.076 167.346 17.076C168.618 17.076 174.762 17.076 175.818 17.076C176.874 17.076 177.81 16.956 178.314 16.788L180.258 18.252ZM174.906 25.692C177.378 27.708 180.786 31.284 182.346 33.204L179.61 35.58C177.834 33.108 175.218 30.252 172.65 27.924L174.906 25.692ZM203.538 16.908C203.538 17.676 204.162 18.3 204.93 18.3C205.698 18.3 206.322 17.676 206.322 16.908C206.322 16.14 205.698 15.516 204.93 15.516C204.162 15.516 203.538 16.14 203.538 16.908ZM202.05 16.908C202.05 15.324 203.346 14.028 204.93 14.028C206.514 14.028 207.81 15.324 207.81 16.908C207.81 18.492 206.514 19.788 204.93 19.788C203.346 19.788 202.05 18.492 202.05 16.908ZM204.978 18.804C204.738 19.26 204.57 19.956 204.45 20.46C203.898 22.812 202.842 26.556 200.826 29.22C198.666 32.1 195.474 34.476 191.178 35.844L188.562 32.964C193.338 31.86 196.05 29.772 197.97 27.348C199.578 25.356 200.49 22.62 200.802 20.556C199.338 20.556 191.418 20.556 189.618 20.556C188.514 20.556 187.386 20.628 186.762 20.676V17.268C187.482 17.364 188.826 17.484 189.618 17.484C191.418 17.484 199.386 17.484 200.73 17.484C201.21 17.484 201.978 17.46 202.602 17.292L204.978 18.804ZM213.618 16.092C214.266 16.188 215.298 16.236 216.114 16.236C217.626 16.236 223.938 16.236 225.33 16.236C226.098 16.236 227.274 16.188 227.922 16.092V19.212C227.298 19.164 226.17 19.116 225.282 19.116C223.962 19.116 217.53 19.116 216.114 19.116C215.322 19.116 214.314 19.14 213.618 19.212V16.092ZM229.962 23.076C229.794 23.388 229.578 23.82 229.506 24.06C228.762 26.388 227.73 28.74 225.954 30.708C223.53 33.42 220.458 35.028 217.386 35.916L214.986 33.204C218.61 32.436 221.466 30.876 223.314 28.98C224.586 27.684 225.354 26.172 225.762 24.852C224.562 24.852 216.33 24.852 214.194 24.852C213.594 24.852 212.394 24.876 211.386 24.948V21.828C212.418 21.924 213.426 21.996 214.194 21.996C215.826 21.996 224.418 21.996 226.05 21.996C226.842 21.996 227.49 21.9 227.826 21.732L229.962 23.076ZM238.05 16.26C239.706 17.388 242.826 19.884 244.242 21.348L241.794 23.844C240.546 22.5 237.522 19.884 235.77 18.684L238.05 16.26ZM235.026 32.244C238.794 31.716 241.89 30.492 244.218 29.124C248.322 26.676 251.442 23.028 252.978 19.788L254.826 23.148C253.026 26.412 249.834 29.724 245.97 32.052C243.522 33.516 240.426 34.836 237.066 35.412L235.026 32.244Z" fill="white"/>
<path d="M195.722 53.5395L184.5 64.9443L173.278 53.5395H195.722Z" fill="#8233FF" fill-opacity="0.96"/>
</svg>
