<svg width="369" height="65" viewBox="0 0 369 65" fill="none" xmlns="http://www.w3.org/2000/svg">
<rect width="369" height="54" fill="#381C76"/>
<path d="M109.331 16.908C109.331 17.676 109.955 18.3 110.723 18.3C111.491 18.3 112.115 17.676 112.115 16.908C112.115 16.14 111.491 15.516 110.723 15.516C109.955 15.516 109.331 16.14 109.331 16.908ZM107.843 16.908C107.843 15.324 109.139 14.028 110.723 14.028C112.307 14.028 113.603 15.324 113.603 16.908C113.603 18.492 112.307 19.788 110.723 19.788C109.139 19.788 107.843 18.492 107.843 16.908ZM110.771 18.804C110.531 19.26 110.363 19.956 110.243 20.46C109.691 22.812 108.635 26.556 106.619 29.22C104.459 32.1 101.267 34.476 96.9706 35.844L94.3546 32.964C99.1306 31.86 101.843 29.772 103.763 27.348C105.371 25.356 106.283 22.62 106.595 20.556C105.131 20.556 97.2106 20.556 95.4106 20.556C94.3066 20.556 93.1786 20.628 92.5546 20.676V17.268C93.2746 17.364 94.6186 17.484 95.4106 17.484C97.2106 17.484 105.179 17.484 106.523 17.484C107.003 17.484 107.771 17.46 108.395 17.292L110.771 18.804ZM118.739 33.564C119.003 32.964 119.051 32.556 119.051 32.004C119.051 30.18 119.051 21.66 119.051 18.972C119.051 18.084 118.907 16.932 118.763 16.26H122.531C122.411 17.172 122.315 18.06 122.315 18.972C122.315 21.636 122.315 29.628 122.315 31.452C126.227 30.348 131.579 27.276 134.651 23.508L136.355 26.244C133.067 30.156 128.075 33.036 122.411 34.884C122.099 34.98 121.571 35.148 120.995 35.532L118.739 33.564ZM144.875 15.708C148.043 16.092 154.955 17.508 157.979 18.564L156.755 21.54C153.947 20.508 147.155 18.996 143.771 18.564L144.875 15.708ZM143.795 22.164C147.227 22.74 153.323 24.06 156.323 25.092L155.147 28.092C152.411 27.036 146.243 25.644 142.667 25.068L143.795 22.164ZM142.547 29.052C146.675 29.676 154.043 31.404 157.355 32.628L156.035 35.628C152.795 34.308 145.187 32.652 141.347 32.052L142.547 29.052ZM184.955 18.276C184.715 18.588 184.259 19.164 184.043 19.5C182.915 21.372 180.635 24.42 178.259 26.1L175.763 24.108C177.707 22.932 179.579 20.82 180.203 19.644C178.739 19.644 169.187 19.644 167.675 19.644C166.691 19.644 165.875 19.692 164.747 19.812V16.452C165.683 16.596 166.691 16.716 167.675 16.716C169.187 16.716 179.363 16.716 180.611 16.716C181.283 16.716 182.603 16.62 183.059 16.5L184.955 18.276ZM175.187 21.492C175.187 27.444 175.043 32.34 168.515 35.868L165.707 33.588C166.499 33.324 167.363 32.916 168.251 32.244C171.275 30.132 171.851 27.612 171.851 23.676C171.851 22.908 171.827 22.284 171.707 21.492H175.187ZM197.667 16.404C197.355 17.124 197.019 18.012 196.659 19.092C195.771 21.78 193.275 29.508 192.243 32.004L188.715 32.124C190.011 29.052 192.507 21.18 193.299 18.396C193.635 17.196 193.755 16.428 193.851 15.636L197.667 16.404ZM201.963 24.156C203.691 26.748 206.139 31.476 207.243 34.14L204.003 35.58C202.923 32.676 200.691 27.708 198.987 25.404L201.963 24.156ZM188.475 31.044C191.811 30.924 199.659 30.036 203.019 29.58L203.715 32.652C200.163 33.108 191.907 33.972 188.667 34.308C188.067 34.38 187.155 34.5 186.411 34.596L185.835 31.068C186.651 31.092 187.707 31.068 188.475 31.044ZM226.213 16.908C226.213 17.676 226.837 18.3 227.605 18.3C228.373 18.3 228.997 17.676 228.997 16.908C228.997 16.14 228.373 15.516 227.605 15.516C226.837 15.516 226.213 16.14 226.213 16.908ZM224.725 16.908C224.725 15.324 226.021 14.028 227.605 14.028C229.189 14.028 230.485 15.324 230.485 16.908C230.485 18.492 229.189 19.788 227.605 19.788C226.021 19.788 224.725 18.492 224.725 16.908ZM227.653 18.804C227.413 19.26 227.245 19.956 227.125 20.46C226.573 22.812 225.517 26.556 223.501 29.22C221.341 32.1 218.149 34.476 213.853 35.844L211.237 32.964C216.013 31.86 218.725 29.772 220.645 27.348C222.253 25.356 223.165 22.62 223.477 20.556C222.013 20.556 214.093 20.556 212.293 20.556C211.189 20.556 210.061 20.628 209.437 20.676V17.268C210.157 17.364 211.501 17.484 212.293 17.484C214.093 17.484 222.061 17.484 223.405 17.484C223.885 17.484 224.653 17.46 225.277 17.292L227.653 18.804ZM236.293 16.092C236.941 16.188 237.973 16.236 238.789 16.236C240.301 16.236 246.613 16.236 248.005 16.236C248.773 16.236 249.949 16.188 250.597 16.092V19.212C249.973 19.164 248.845 19.116 247.957 19.116C246.637 19.116 240.205 19.116 238.789 19.116C237.997 19.116 236.989 19.14 236.293 19.212V16.092ZM252.637 23.076C252.469 23.388 252.253 23.82 252.181 24.06C251.437 26.388 250.405 28.74 248.629 30.708C246.205 33.42 243.133 35.028 240.061 35.916L237.661 33.204C241.285 32.436 244.141 30.876 245.989 28.98C247.261 27.684 248.029 26.172 248.437 24.852C247.237 24.852 239.005 24.852 236.869 24.852C236.269 24.852 235.069 24.876 234.061 24.948V21.828C235.093 21.924 236.101 21.996 236.869 21.996C238.501 21.996 247.093 21.996 248.725 21.996C249.517 21.996 250.165 21.9 250.501 21.732L252.637 23.076ZM260.725 16.26C262.381 17.388 265.501 19.884 266.917 21.348L264.469 23.844C263.221 22.5 260.197 19.884 258.445 18.684L260.725 16.26ZM257.701 32.244C261.469 31.716 264.565 30.492 266.893 29.124C270.997 26.676 274.117 23.028 275.653 19.788L277.501 23.148C275.701 26.412 272.509 29.724 268.645 32.052C266.197 33.516 263.101 34.836 259.741 35.412L257.701 32.244Z" fill="white"/>
<path d="M195.722 53.5395L184.5 64.9443L173.278 53.5395H195.722Z" fill="#381C76"/>
</svg>
