<svg width="167" height="182" viewBox="0 0 167 182" fill="none" xmlns="http://www.w3.org/2000/svg">
<g clip-path="url(#clip0_35_2887)">
<path d="M2.24024 56.9525V126.664C2.23845 129.991 3.11878 133.26 4.79189 136.139C6.465 139.017 8.87134 141.403 11.7667 143.053L73.1796 178.068C76.0362 179.697 79.2695 180.554 82.5598 180.554C85.85 180.554 89.0833 179.697 91.9399 178.068L153.356 143.053C156.25 141.402 158.656 139.016 160.328 136.138C162.001 133.259 162.881 129.991 162.879 126.664V56.9525C162.88 53.6258 161.999 50.358 160.327 47.4803C158.655 44.6026 156.249 42.2173 153.356 40.566L91.9399 5.54866C89.0833 3.9193 85.85 3.06226 82.5598 3.06226C79.2695 3.06226 76.0362 3.9193 73.1796 5.54866L11.7667 40.566C8.87196 42.2165 6.46605 44.6015 4.793 47.4794C3.11994 50.3572 2.23925 53.6254 2.24024 56.9525" fill="url(#paint0_linear_35_2887)"/>
<mask id="mask0_35_2887" style="mask-type:alpha" maskUnits="userSpaceOnUse" x="2" y="3" width="161" height="178">
<path d="M162.878 126.662L162.878 56.9513C162.88 53.6236 161.999 50.3547 160.326 47.4763C158.653 44.5978 156.247 42.2124 153.351 40.5619L91.9386 5.54742C89.0819 3.91806 85.8486 3.06102 82.5584 3.06102C79.2681 3.06102 76.0348 3.91807 73.1782 5.54742L11.7625 40.5619C8.86802 42.2132 6.46258 44.5989 4.79005 47.4772C3.11751 50.3555 2.23737 53.624 2.23886 56.9513L2.23888 126.663C2.23818 129.989 3.11869 133.257 4.79117 136.135C6.46365 139.012 8.86866 141.398 11.7625 143.049L73.1782 178.066C76.0349 179.696 79.2681 180.553 82.5584 180.553C85.8487 180.553 89.082 179.696 91.9386 178.066L153.351 143.049C156.246 141.399 158.652 139.013 160.325 136.136C161.998 133.258 162.879 129.99 162.878 126.662" fill="url(#paint1_linear_35_2887)"/>
</mask>
<g mask="url(#mask0_35_2887)">
<mask id="mask1_35_2887" style="mask-type:alpha" maskUnits="userSpaceOnUse" x="2" y="3" width="161" height="178">
<path d="M2.23731 126.663L2.23731 56.952C2.23552 53.6243 3.11585 50.3554 4.78896 47.477C6.46208 44.5986 8.86842 42.2131 11.7638 40.5626L73.1767 5.54818C76.0333 3.91882 79.2666 3.06178 82.5568 3.06178C85.8471 3.06178 89.0804 3.91883 91.937 5.54819L153.353 40.5627C156.247 42.214 158.653 44.5997 160.325 47.478C161.998 50.3563 162.878 53.6248 162.876 56.9521L162.876 126.663C162.877 129.99 161.997 133.258 160.324 136.136C158.652 139.013 156.247 141.399 153.353 143.05L91.937 178.067C89.0804 179.696 85.8471 180.554 82.5568 180.554C79.2666 180.554 76.0333 179.696 73.1767 178.067L11.7638 143.05C8.86903 141.399 6.46312 139.014 4.79007 136.136C3.11701 133.259 2.23632 129.99 2.23731 126.663" fill="url(#paint2_linear_35_2887)"/>
</mask>
<g mask="url(#mask1_35_2887)">
<mask id="mask2_35_2887" style="mask-type:alpha" maskUnits="userSpaceOnUse" x="2" y="3" width="161" height="178">
<path d="M162.876 56.9527L162.876 126.664C162.878 129.992 161.998 133.261 160.324 136.139C158.651 139.017 156.245 141.403 153.35 143.053L91.9367 178.068C89.0801 179.697 85.8468 180.554 82.5565 180.554C79.2663 180.554 76.033 179.697 73.1764 178.068L11.7606 143.053C8.86617 141.402 6.46072 139.016 4.78819 136.138C3.11565 133.26 2.23551 129.991 2.237 126.664L2.23696 56.9528C2.23627 53.626 3.11677 50.3583 4.78925 47.4806C6.46172 44.6029 8.86673 42.2175 11.7606 40.5663L73.1763 5.54891C76.0329 3.91955 79.2662 3.0625 82.5565 3.0625C85.8467 3.0625 89.08 3.91955 91.9366 5.54891L153.35 40.5663C156.244 42.2167 158.65 44.6018 160.323 47.4796C161.996 50.3574 162.877 53.6256 162.876 56.9527" fill="url(#paint3_linear_35_2887)"/>
</mask>
<g mask="url(#mask2_35_2887)">
<mask id="mask3_35_2887" style="mask-type:alpha" maskUnits="userSpaceOnUse" x="2" y="3" width="161" height="178">
<path d="M2.23632 56.953L2.23631 126.664C2.23452 129.992 3.11485 133.261 4.78796 136.139C6.46107 139.018 8.86741 141.403 11.7628 143.054L73.1756 178.068C76.0323 179.697 79.2656 180.554 82.5558 180.554C85.8461 180.554 89.0794 179.697 91.936 178.068L153.352 143.054C156.246 141.402 158.652 139.017 160.324 136.138C161.997 133.26 162.877 129.992 162.875 126.664L162.875 56.953C162.876 53.6263 161.996 50.3585 160.323 47.4808C158.651 44.6031 156.246 42.2178 153.352 40.5665L91.936 5.54916C89.0794 3.91981 85.8461 3.06276 82.5559 3.06276C79.2656 3.06276 76.0323 3.9198 73.1757 5.54916L11.7628 40.5665C8.86805 42.2169 6.46214 44.602 4.78908 47.4798C3.11602 50.3577 2.23533 53.6259 2.23632 56.953" fill="url(#paint4_linear_35_2887)"/>
</mask>
<g mask="url(#mask3_35_2887)">
<mask id="mask4_35_2887" style="mask-type:alpha" maskUnits="userSpaceOnUse" x="2" y="3" width="161" height="178">
<path d="M2.23632 56.954L2.23631 126.665C2.23452 129.993 3.11485 133.262 4.78796 136.14C6.46107 139.019 8.86741 141.404 11.7628 143.055L73.1756 178.069C76.0323 179.698 79.2656 180.555 82.5558 180.555C85.8461 180.555 89.0794 179.698 91.936 178.069L153.352 143.055C156.246 141.403 158.652 139.018 160.324 136.139C161.997 133.261 162.877 129.992 162.875 126.665L162.875 56.954C162.876 53.6273 161.996 50.3595 160.323 47.4818C158.651 44.6041 156.246 42.2188 153.352 40.5675L91.936 5.55014C89.0794 3.92078 85.8461 3.06374 82.5559 3.06373C79.2656 3.06373 76.0323 3.92078 73.1757 5.55014L11.7628 40.5675C8.86805 42.2179 6.46214 44.603 4.78908 47.4808C3.11602 50.3586 2.23533 53.6269 2.23632 56.954" fill="url(#paint5_linear_35_2887)"/>
</mask>
<g mask="url(#mask4_35_2887)">
<path opacity="0.35" d="M2.23632 56.954L2.23631 126.665C2.23452 129.993 3.11485 133.262 4.78796 136.14C6.46107 139.019 8.86741 141.404 11.7628 143.055L73.1756 178.069C76.0323 179.698 79.2656 180.555 82.5558 180.555C85.8461 180.555 89.0794 179.698 91.936 178.069L153.352 143.055C156.246 141.403 158.652 139.018 160.324 136.139C161.997 133.261 162.877 129.992 162.875 126.665L162.875 56.954C162.876 53.6273 161.996 50.3595 160.323 47.4818C158.651 44.6041 156.246 42.2188 153.352 40.5675L91.936 5.55014C89.0794 3.92078 85.8461 3.06374 82.5558 3.06373C79.2656 3.06373 76.0323 3.92078 73.1757 5.55014L11.7628 40.5675C8.86805 42.2179 6.46214 44.603 4.78908 47.4808C3.11602 50.3586 2.23533 53.6269 2.23632 56.954Z" fill="black"/>
</g>
</g>
</g>
</g>
</g>
<path d="M23.7539 66.2464V117.368C23.7526 119.808 24.3971 122.206 25.6221 124.316C26.847 126.427 28.6088 128.177 30.7287 129.387L75.6917 155.064C77.7832 156.259 80.1504 156.888 82.5593 156.888C84.9683 156.888 87.3355 156.259 89.427 155.064L134.392 129.387C136.511 128.176 138.272 126.426 139.497 124.316C140.721 122.205 141.366 119.808 141.365 117.368V66.2464C141.365 63.8068 140.721 61.4104 139.496 59.3001C138.272 57.1898 136.511 55.4405 134.392 54.2296L89.427 28.5502C87.3355 27.3553 84.9683 26.7268 82.5593 26.7268C80.1504 26.7268 77.7832 27.3553 75.6917 28.5502L30.7287 54.2296C28.6093 55.4399 26.8478 57.189 25.6229 59.2994C24.398 61.4098 23.7532 63.8065 23.7539 66.2464" fill="url(#paint6_linear_35_2887)"/>
<path d="M79.1639 53.2373L50.6503 69.5823C48.5224 70.8043 47.2031 73.0829 47.2031 75.5429V108.078C47.2031 110.533 48.5224 112.817 50.6503 114.039L79.1639 130.384C80.196 130.976 81.3716 131.286 82.5579 131.286C83.7495 131.286 84.9199 130.971 85.9519 130.384L114.466 114.039C116.593 112.817 117.913 110.538 117.913 108.078V75.5429C117.913 73.0882 116.593 70.8043 114.466 69.5823L85.9519 53.2373C84.9199 52.645 83.7442 52.3354 82.5579 52.3354C81.3663 52.3354 80.196 52.645 79.1639 53.2373Z" fill="url(#paint7_linear_35_2887)"/>
<path d="M82.5587 54.3999C83.3886 54.3999 84.2079 54.6187 84.9313 55.0296L113.445 71.3746C114.935 72.2284 115.855 73.8239 115.855 75.5422V108.072C115.855 109.79 114.935 111.386 113.445 112.234L84.9313 128.579C84.2132 128.99 83.3886 129.209 82.5587 129.209C81.7289 129.209 80.9096 128.99 80.1862 128.579L51.6725 112.234C50.1883 111.386 49.2627 109.79 49.2627 108.072V75.5422C49.2627 73.8239 50.1883 72.2284 51.6725 71.3746L80.1862 55.0296C80.9043 54.6187 81.7289 54.3999 82.5587 54.3999ZM82.5587 50.3923C81.0586 50.3923 79.5531 50.7819 78.2019 51.5556L49.6883 67.8953C46.9539 69.4642 45.2676 72.3831 45.2676 75.5422V108.072C45.2676 111.231 46.9539 114.15 49.6883 115.719L78.2019 132.064C79.5531 132.838 81.0533 133.222 82.5587 133.222C84.0589 133.222 85.5644 132.838 86.9156 132.064L115.429 115.719C118.164 114.15 119.85 111.237 119.85 108.072V75.5422C119.85 72.3831 118.164 69.4642 115.429 67.8953L86.9103 51.5556C85.5644 50.7819 84.0589 50.3923 82.5587 50.3923Z" fill="black"/>
<path d="M71.9023 107.837H77.8977V71.7639H71.9023V107.837ZM97.2933 81.1024H89.8245L80.8661 92.9863V95.9586L89.8298 107.826H97.2933L86.8401 94.4698L97.2933 81.1024Z" fill="black"/>
</g>
<defs>
<linearGradient id="paint0_linear_35_2887" x1="2.24024" y1="180.554" x2="119.648" y2="-21.9966" gradientUnits="userSpaceOnUse">
<stop stop-color="#602AD2"/>
<stop offset="1" stop-color="#1D1355"/>
</linearGradient>
<linearGradient id="paint1_linear_35_2887" x1="110.568" y1="16.227" x2="27.9261" y2="152.338" gradientUnits="userSpaceOnUse">
<stop offset="0.0847715" stop-opacity="0"/>
<stop offset="0.299135"/>
</linearGradient>
<linearGradient id="paint2_linear_35_2887" x1="54.5471" y1="16.2277" x2="137.189" y2="152.338" gradientUnits="userSpaceOnUse">
<stop offset="0.0904884" stop-opacity="0"/>
<stop offset="0.299135"/>
</linearGradient>
<linearGradient id="paint3_linear_35_2887" x1="156.899" y1="140.521" x2="68.7738" y2="8.36975" gradientUnits="userSpaceOnUse">
<stop offset="0.00851842" stop-opacity="0"/>
<stop offset="0.173492"/>
</linearGradient>
<linearGradient id="paint4_linear_35_2887" x1="8.21303" y1="140.521" x2="96.3385" y2="8.37002" gradientUnits="userSpaceOnUse">
<stop offset="0.00851842" stop-opacity="0"/>
<stop offset="0.173492"/>
</linearGradient>
<linearGradient id="paint5_linear_35_2887" x1="2.23632" y1="93.3038" x2="162.875" y2="93.3038" gradientUnits="userSpaceOnUse">
<stop offset="0.0372058" stop-opacity="0"/>
<stop offset="0.107364" stop-opacity="0.3"/>
<stop offset="0.179472"/>
<stop offset="0.822593"/>
<stop offset="0.891777" stop-opacity="0.3"/>
<stop offset="0.961935" stop-opacity="0"/>
</linearGradient>
<linearGradient id="paint6_linear_35_2887" x1="23.7539" y1="156.888" x2="109.923" y2="8.47182" gradientUnits="userSpaceOnUse">
<stop stop-color="#602AD2"/>
<stop offset="1" stop-color="#1D1355"/>
</linearGradient>
<linearGradient id="paint7_linear_35_2887" x1="69.7691" y1="127.052" x2="95.4862" y2="56.6141" gradientUnits="userSpaceOnUse">
<stop stop-color="#23D1AE"/>
<stop offset="1" stop-color="#7EFF33"/>
</linearGradient>
<clipPath id="clip0_35_2887">
<rect width="166.088" height="181.446" fill="white" transform="translate(0.618164 0.12915)"/>
</clipPath>
</defs>
</svg>
