<svg width="369" height="65" viewBox="0 0 369 65" fill="none" xmlns="http://www.w3.org/2000/svg">
<rect width="369" height="54" fill="#0996DC"/>
<path d="M96.492 18.252C96.3 18.516 95.868 19.236 95.652 19.74C94.668 22.02 92.892 25.284 90.828 27.684C88.14 30.78 84.516 33.756 80.796 35.508L78.3 32.916C82.188 31.476 85.884 28.548 88.14 26.052C89.724 24.252 91.188 21.876 91.74 20.172C90.732 20.172 84.612 20.172 83.58 20.172C82.596 20.172 81.276 20.292 80.748 20.34V16.908C81.396 17.004 82.884 17.076 83.58 17.076C84.852 17.076 90.996 17.076 92.052 17.076C93.108 17.076 94.044 16.956 94.548 16.788L96.492 18.252ZM91.14 25.692C93.612 27.708 97.02 31.284 98.58 33.204L95.844 35.58C94.068 33.108 91.452 30.252 88.884 27.924L91.14 25.692ZM110.772 23.268C113.724 24.972 118.164 28.044 120.396 29.82L118.092 32.556C116.004 30.588 111.444 27.228 108.636 25.452L110.772 23.268ZM122.076 19.188C121.788 19.644 121.476 20.316 121.26 20.916C120.54 23.124 119.076 26.196 116.916 28.86C114.66 31.668 111.588 34.356 107.004 36.084L104.22 33.684C109.236 32.124 112.092 29.604 114.156 27.204C115.764 25.308 117.252 22.548 117.708 20.676H109.596L110.7 17.964H117.54C118.284 17.964 119.076 17.844 119.628 17.676L122.076 19.188ZM114.132 15.492C113.556 16.332 112.932 17.436 112.644 17.94C111.036 20.844 107.964 24.516 104.508 26.892L101.94 24.9C106.14 22.308 108.348 19.02 109.572 16.932C109.932 16.356 110.436 15.252 110.652 14.412L114.132 15.492ZM130.284 16.26C131.94 17.388 135.06 19.884 136.476 21.348L134.028 23.844C132.78 22.5 129.756 19.884 128.004 18.684L130.284 16.26ZM127.26 32.244C131.028 31.716 134.124 30.492 136.452 29.124C140.556 26.676 143.676 23.028 145.212 19.788L147.06 23.148C145.26 26.412 142.068 29.724 138.204 32.052C135.756 33.516 132.66 34.836 129.3 35.412L127.26 32.244ZM167.196 14.796C167.796 15.684 168.636 17.196 169.092 18.084L167.172 18.9C166.668 17.94 165.924 16.5 165.276 15.588L167.196 14.796ZM170.028 13.716C170.652 14.604 171.54 16.14 171.972 16.98L170.052 17.796C169.548 16.788 168.78 15.396 168.132 14.484L170.028 13.716ZM158.196 23.844C161.148 25.548 165.612 28.62 167.82 30.396L165.54 33.108C163.428 31.14 158.892 27.804 156.084 26.028L158.196 23.844ZM169.5 19.764C169.236 20.22 168.924 20.892 168.708 21.492C167.964 23.7 166.5 26.772 164.364 29.436C162.108 32.244 159.012 34.932 154.428 36.66L151.644 34.26C156.66 32.7 159.54 30.18 161.58 27.78C163.212 25.86 164.7 23.124 165.156 21.252H157.02L158.148 18.54H164.964C165.708 18.54 166.524 18.42 167.052 18.252L169.5 19.764ZM161.556 16.068C160.98 16.908 160.38 18.012 160.092 18.516C158.46 21.42 155.388 25.092 151.956 27.468L149.364 25.476C153.564 22.884 155.796 19.572 156.996 17.508C157.356 16.908 157.884 15.804 158.1 14.988L161.556 16.068ZM174.684 23.388C175.572 23.46 177.3 23.556 178.548 23.556C181.38 23.556 189.3 23.556 191.436 23.556C192.564 23.556 193.62 23.436 194.268 23.388V27.18C193.692 27.156 192.468 27.036 191.46 27.036C189.276 27.036 181.38 27.036 178.548 27.036C177.204 27.036 175.596 27.108 174.684 27.18V23.388ZM212.844 16.644C213.516 17.652 214.5 19.188 215.028 20.292L212.964 21.204C212.244 19.692 211.716 18.732 210.828 17.508L212.844 16.644ZM215.988 15.348C216.708 16.308 217.716 17.796 218.244 18.876L216.228 19.884C215.46 18.348 214.884 17.46 213.996 16.284L215.988 15.348ZM203.292 32.556C203.292 30.732 203.292 20.796 203.292 18.756C203.292 17.892 203.196 16.716 203.028 15.876H206.796C206.7 16.716 206.58 17.772 206.58 18.756C206.58 21.42 206.58 30.78 206.58 32.556C206.58 33.252 206.7 34.932 206.796 35.892H203.052C203.196 34.956 203.292 33.516 203.292 32.556ZM205.86 22.068C209.076 22.956 214.236 24.852 216.612 26.028L215.244 29.34C212.532 27.924 208.476 26.388 205.86 25.524V22.068ZM239.772 16.908C239.772 17.676 240.396 18.3 241.164 18.3C241.932 18.3 242.556 17.676 242.556 16.908C242.556 16.14 241.932 15.516 241.164 15.516C240.396 15.516 239.772 16.14 239.772 16.908ZM238.284 16.908C238.284 15.324 239.58 14.028 241.164 14.028C242.748 14.028 244.044 15.324 244.044 16.908C244.044 18.492 242.748 19.788 241.164 19.788C239.58 19.788 238.284 18.492 238.284 16.908ZM241.212 18.804C240.972 19.26 240.804 19.956 240.684 20.46C240.132 22.812 239.076 26.556 237.06 29.22C234.9 32.1 231.708 34.476 227.412 35.844L224.796 32.964C229.572 31.86 232.284 29.772 234.204 27.348C235.812 25.356 236.724 22.62 237.036 20.556C235.572 20.556 227.652 20.556 225.852 20.556C224.748 20.556 223.62 20.628 222.996 20.676V17.268C223.716 17.364 225.06 17.484 225.852 17.484C227.652 17.484 235.62 17.484 236.964 17.484C237.444 17.484 238.212 17.46 238.836 17.292L241.212 18.804ZM249.852 16.092C250.5 16.188 251.532 16.236 252.348 16.236C253.86 16.236 260.172 16.236 261.564 16.236C262.332 16.236 263.508 16.188 264.156 16.092V19.212C263.532 19.164 262.404 19.116 261.516 19.116C260.196 19.116 253.764 19.116 252.348 19.116C251.556 19.116 250.548 19.14 249.852 19.212V16.092ZM266.196 23.076C266.028 23.388 265.812 23.82 265.74 24.06C264.996 26.388 263.964 28.74 262.188 30.708C259.764 33.42 256.692 35.028 253.62 35.916L251.22 33.204C254.844 32.436 257.7 30.876 259.548 28.98C260.82 27.684 261.588 26.172 261.996 24.852C260.796 24.852 252.564 24.852 250.428 24.852C249.828 24.852 248.628 24.876 247.62 24.948V21.828C248.652 21.924 249.66 21.996 250.428 21.996C252.06 21.996 260.652 21.996 262.284 21.996C263.076 21.996 263.724 21.9 264.06 21.732L266.196 23.076ZM274.284 16.26C275.94 17.388 279.06 19.884 280.476 21.348L278.028 23.844C276.78 22.5 273.756 19.884 272.004 18.684L274.284 16.26ZM271.26 32.244C275.028 31.716 278.124 30.492 280.452 29.124C284.556 26.676 287.676 23.028 289.212 19.788L291.06 23.148C289.26 26.412 286.068 29.724 282.204 32.052C279.756 33.516 276.66 34.836 273.3 35.412L271.26 32.244Z" fill="white"/>
<path d="M195.722 53.5395L184.5 64.9443L173.278 53.5395H195.722Z" fill="#0996DC"/>
</svg>
