<svg width="167" height="184" viewBox="0 0 167 184" fill="none" xmlns="http://www.w3.org/2000/svg">
<g clip-path="url(#clip0_35_2855)">
<g clip-path="url(#clip1_35_2855)">
<g clip-path="url(#clip2_35_2855)">
<path d="M74.6501 0.655422C80.3398 -2.72824 87.3453 -2.72824 93.035 0.655424L158.181 39.3973C163.884 42.7892 167.399 49.0656 167.399 55.8589V127.435C167.399 134.229 163.884 140.505 158.181 143.897L93.035 182.639C87.3453 186.022 80.3398 186.022 74.6501 182.639L9.50441 143.897C3.80084 140.505 0.286133 134.229 0.286133 127.435V55.8589C0.286133 49.0656 3.80084 42.7892 9.50441 39.3973L74.6501 0.655422Z" fill="url(#paint0_linear_35_2855)"/>
<mask id="mask0_35_2855" style="mask-type:alpha" maskUnits="userSpaceOnUse" x="0" y="-2" width="168" height="188">
<path d="M74.6501 0.655422C80.3398 -2.72824 87.3453 -2.72824 93.035 0.655424L158.181 39.3973C163.884 42.7892 167.399 49.0656 167.399 55.8589V127.435C167.399 134.229 163.884 140.505 158.181 143.897L93.035 182.639C87.3453 186.022 80.3398 186.022 74.6501 182.639L9.50441 143.897C3.80084 140.505 0.286133 134.229 0.286133 127.435V55.8589C0.286133 49.0656 3.80084 42.7892 9.50441 39.3973L74.6501 0.655422Z" fill="url(#paint1_linear_35_2855)"/>
</mask>
<g mask="url(#mask0_35_2855)">
<mask id="mask1_35_2855" style="mask-type:alpha" maskUnits="userSpaceOnUse" x="0" y="-2" width="168" height="188">
<path d="M74.6501 0.655422C80.3398 -2.72824 87.3453 -2.72824 93.035 0.655424L158.181 39.3973C163.884 42.7892 167.399 49.0656 167.399 55.8589V127.435C167.399 134.229 163.884 140.505 158.181 143.897L93.035 182.639C87.3453 186.022 80.3398 186.022 74.6501 182.639L9.50441 143.897C3.80084 140.505 0.286133 134.229 0.286133 127.435V55.8589C0.286133 49.0656 3.80084 42.7892 9.50441 39.3973L74.6501 0.655422Z" fill="url(#paint2_linear_35_2855)"/>
</mask>
<g mask="url(#mask1_35_2855)">
<mask id="mask2_35_2855" style="mask-type:alpha" maskUnits="userSpaceOnUse" x="0" y="-2" width="168" height="188">
<path d="M74.6501 0.655422C80.3398 -2.72824 87.3453 -2.72824 93.035 0.655424L158.181 39.3973C163.884 42.7892 167.399 49.0656 167.399 55.8589V127.435C167.399 134.229 163.884 140.505 158.181 143.897L93.035 182.639C87.3453 186.022 80.3398 186.022 74.6501 182.639L9.50441 143.897C3.80084 140.505 0.286133 134.229 0.286133 127.435V55.8589C0.286133 49.0656 3.80084 42.7892 9.50441 39.3973L74.6501 0.655422Z" fill="url(#paint3_linear_35_2855)"/>
</mask>
<g mask="url(#mask2_35_2855)">
<mask id="mask3_35_2855" style="mask-type:alpha" maskUnits="userSpaceOnUse" x="0" y="-2" width="168" height="188">
<path d="M74.6501 0.655422C80.3398 -2.72824 87.3453 -2.72824 93.035 0.655424L158.181 39.3973C163.884 42.7892 167.399 49.0656 167.399 55.8589V127.435C167.399 134.229 163.884 140.505 158.181 143.897L93.035 182.639C87.3453 186.022 80.3398 186.022 74.6501 182.639L9.50441 143.897C3.80084 140.505 0.286133 134.229 0.286133 127.435V55.8589C0.286133 49.0656 3.80084 42.7892 9.50441 39.3973L74.6501 0.655422Z" fill="url(#paint4_linear_35_2855)"/>
</mask>
<g mask="url(#mask3_35_2855)">
<mask id="mask4_35_2855" style="mask-type:alpha" maskUnits="userSpaceOnUse" x="0" y="-2" width="168" height="188">
<path d="M74.6501 0.655422C80.3398 -2.72824 87.3453 -2.72824 93.035 0.655424L158.181 39.3973C163.884 42.7892 167.399 49.0656 167.399 55.8589V127.435C167.399 134.229 163.884 140.505 158.181 143.897L93.035 182.639C87.3453 186.022 80.3398 186.022 74.6501 182.639L9.50441 143.897C3.80084 140.505 0.286133 134.229 0.286133 127.435V55.8589C0.286133 49.0656 3.80084 42.7892 9.50441 39.3973L74.6501 0.655422Z" fill="url(#paint5_linear_35_2855)"/>
</mask>
<g mask="url(#mask4_35_2855)">
<path opacity="0.3" d="M74.6501 0.655422C80.3398 -2.72824 87.3453 -2.72824 93.035 0.655424L158.181 39.3973C163.884 42.7892 167.399 49.0656 167.399 55.8589V127.435C167.399 134.229 163.884 140.505 158.181 143.897L93.035 182.639C87.3453 186.022 80.3398 186.022 74.6501 182.639L9.50441 143.897C3.80084 140.505 0.286133 134.229 0.286133 127.435V55.8589C0.286133 49.0656 3.80084 42.7892 9.50441 39.3973L74.6501 0.655422Z" fill="#002355"/>
</g>
</g>
</g>
</g>
</g>
<path d="M76.771 27.1865C81.1478 24.5837 86.5366 24.5837 90.9133 27.1865L136.232 54.1374C140.619 56.7465 143.323 61.5745 143.323 66.8001V116.493C143.323 121.719 140.619 126.547 136.232 129.156L90.9133 156.107C86.5366 158.709 81.1478 158.71 76.7711 156.107L31.4523 129.156C27.065 126.547 24.3613 121.719 24.3613 116.493V66.8001C24.3613 61.5745 27.0649 56.7465 31.4523 54.1374L76.771 27.1865Z" fill="url(#paint6_linear_35_2855)"/>
<g clip-path="url(#clip3_35_2855)">
<g clip-path="url(#clip4_35_2855)">
<path d="M88.0093 50.4133C85.4311 48.8801 82.2568 48.8801 79.6786 50.4133L50.1595 67.9683C47.575 69.5052 45.9824 72.3492 45.9824 75.4274V107.86C45.9824 110.939 47.575 113.783 50.1595 115.32L79.6786 132.875C82.2568 134.408 85.4311 134.408 88.0093 132.875L117.528 115.32C120.113 113.783 121.705 110.939 121.705 107.86V75.4274C121.705 72.3492 120.113 69.5052 117.528 67.9683L88.0093 50.4133Z" fill="url(#paint7_linear_35_2855)"/>
<path fill-rule="evenodd" clip-rule="evenodd" d="M115.606 71.4109L86.0868 53.856C84.6986 53.0305 82.9893 53.0305 81.6011 53.856L52.0819 71.411C50.6903 72.2385 49.8327 73.7699 49.8327 75.4274V107.86C49.8327 109.518 50.6903 111.049 52.0819 111.877L81.6011 129.432C82.9893 130.257 84.6986 130.257 86.0868 129.432L115.606 111.877C116.998 111.049 117.855 109.518 117.855 107.86V75.4274C117.855 73.7699 116.998 72.2385 115.606 71.4109ZM88.0093 50.4133C85.4311 48.8801 82.2568 48.8801 79.6786 50.4133L50.1595 67.9683C47.575 69.5052 45.9824 72.3492 45.9824 75.4274V107.86C45.9824 110.939 47.575 113.783 50.1595 115.32L79.6786 132.875C82.2568 134.408 85.4311 134.408 88.0093 132.875L117.528 115.32C120.113 113.783 121.705 110.939 121.705 107.86V75.4274C121.705 72.3492 120.113 69.5052 117.528 67.9683L88.0093 50.4133Z" fill="black"/>
</g>
<path d="M73.5762 108.196H79.3517V70.4509H73.5762V108.196Z" fill="black"/>
<path d="M91.2235 80.3839H98.2824L88.0149 93.9589L98.2824 108.196H91.2235L82.5603 95.9454V91.9723L91.2235 80.3839Z" fill="black"/>
</g>
</g>
</g>
</g>
<defs>
<linearGradient id="paint0_linear_35_2855" x1="152.624" y1="5.06696" x2="28.6188" y2="141.368" gradientUnits="userSpaceOnUse">
<stop stop-color="#00AAFF"/>
<stop offset="1" stop-color="#00D1FF"/>
</linearGradient>
<linearGradient id="paint1_linear_35_2855" x1="112.981" y1="9.4991" x2="21.3928" y2="153.876" gradientUnits="userSpaceOnUse">
<stop offset="0.0847715" stop-opacity="0"/>
<stop offset="0.299135"/>
</linearGradient>
<linearGradient id="paint2_linear_35_2855" x1="54.7041" y1="9.49909" x2="146.292" y2="153.876" gradientUnits="userSpaceOnUse">
<stop offset="0.0904884" stop-opacity="0"/>
<stop offset="0.299135"/>
</linearGradient>
<linearGradient id="paint3_linear_35_2855" x1="161.181" y1="144.593" x2="63.8507" y2="4.89636" gradientUnits="userSpaceOnUse">
<stop offset="0.00851842" stop-opacity="0"/>
<stop offset="0.173492"/>
</linearGradient>
<linearGradient id="paint4_linear_35_2855" x1="6.50369" y1="144.593" x2="103.834" y2="4.89632" gradientUnits="userSpaceOnUse">
<stop offset="0.00851842" stop-opacity="0"/>
<stop offset="0.173492"/>
</linearGradient>
<linearGradient id="paint5_linear_35_2855" x1="0.286125" y1="93.2711" x2="167.399" y2="93.2711" gradientUnits="userSpaceOnUse">
<stop offset="0.0372058" stop-opacity="0"/>
<stop offset="0.107364" stop-opacity="0.3"/>
<stop offset="0.179472"/>
<stop offset="0.822593"/>
<stop offset="0.891777" stop-opacity="0.3"/>
<stop offset="0.961935" stop-opacity="0"/>
</linearGradient>
<linearGradient id="paint6_linear_35_2855" x1="132.805" y1="30.0133" x2="44.5304" y2="127.041" gradientUnits="userSpaceOnUse">
<stop stop-color="#00AAFF"/>
<stop offset="1" stop-color="#00D1FF"/>
</linearGradient>
<linearGradient id="paint7_linear_35_2855" x1="105.962" y1="59.7367" x2="56.873" y2="118.941" gradientUnits="userSpaceOnUse">
<stop stop-color="#4DFF88"/>
<stop offset="1" stop-color="#3DE8CA"/>
</linearGradient>
<clipPath id="clip0_35_2855">
<rect width="166.088" height="183.123" fill="white" transform="translate(0.726562)"/>
</clipPath>
<clipPath id="clip1_35_2855">
<rect width="181.275" height="187.059" fill="white" transform="translate(-6.79492 -1.88818)"/>
</clipPath>
<clipPath id="clip2_35_2855">
<rect width="181.275" height="187.059" fill="white" transform="translate(-6.79492 -1.88818)"/>
</clipPath>
<clipPath id="clip3_35_2855">
<rect width="82.1402" height="84.761" fill="white" transform="translate(42.7734 49.2607)"/>
</clipPath>
<clipPath id="clip4_35_2855">
<rect width="82.1402" height="84.761" fill="white" transform="translate(42.7734 49.2607)"/>
</clipPath>
</defs>
</svg>
