<svg width="2296" height="2275" viewBox="0 0 2296 2275" fill="none" xmlns="http://www.w3.org/2000/svg">
<g clip-path="url(#clip0_35_2953)">
<g opacity="0.8" filter="url(#filter0_f_35_2953)">
<path d="M980.825 1133.51L1053.96 1273.8C1063.45 1292 1079.58 1305.93 1099.08 1312.73L1227.85 1357.7C1249.79 1365.37 1274.01 1363.34 1294.4 1352.13L1363.16 1314.35C1395.07 1296.82 1411.41 1260.43 1403.18 1225.25L1355.45 1021.21C1349.49 995.718 1331.42 974.707 1306.99 964.849L1136.34 896.003C1094.83 879.255 1047.38 898.995 1030.22 940.154L977.942 1065.57C968.773 1087.56 969.828 1112.42 980.825 1133.51Z" fill="#29CCB1"/>
</g>
<g opacity="0.7" filter="url(#filter1_f_35_2953)">
<path d="M1426.53 881.112L1236.08 838.471C1216.37 834.056 1195.72 840.123 1181.57 854.492L1068.38 969.393C1052.96 985.048 1047.75 1007.98 1054.94 1028.62L1121.8 1220.72C1128.95 1241.25 1147.15 1256.03 1168.86 1258.93L1346.37 1282.67C1366.85 1285.41 1387.29 1277.15 1400.05 1260.99L1515.15 1115.25C1527.85 1099.18 1531.07 1077.69 1523.62 1058.7L1467.79 916.343C1460.8 898.522 1445.34 885.324 1426.53 881.112Z" fill="#3DE8CA"/>
</g>
<g opacity="0.7" filter="url(#filter2_f_35_2953)">
<path d="M1209.56 1122.7L1070.8 942.944C1058.64 927.181 1039.35 918.473 1019.34 919.711L861.36 929.484C835.983 931.054 814.285 948.249 807.124 972.462L747.783 1173.12C741.912 1192.97 746.793 1214.39 760.689 1229.76L900.674 1384.58C914.636 1400.02 935.702 1407.14 956.31 1403.38L1133.62 1371.07C1156.9 1366.83 1175.57 1349.47 1181.33 1326.69L1220.11 1173.52C1224.59 1155.85 1220.7 1137.14 1209.56 1122.7Z" fill="#3DE8CA"/>
</g>
<g opacity="0.5" filter="url(#filter3_f_35_2953)">
<path d="M1013.82 1430.16L1008.73 1204.52C1008.28 1184.65 997.898 1166.32 981.03 1155.64L848.507 1071.67C827.112 1058.11 799.402 1059.35 779.246 1074.78L612.989 1201.98C596.463 1214.63 587.674 1234.82 589.751 1255.39L610.579 1461.6C612.666 1482.26 625.423 1500.34 644.271 1509.34L805.659 1586.4C826.954 1596.57 852.315 1593.42 870.494 1578.35L992.151 1477.48C1006.25 1465.78 1014.23 1448.36 1013.82 1430.16Z" fill="#3DE8CA"/>
</g>
<g opacity="0.7" filter="url(#filter4_f_35_2953)">
<path d="M1233.73 1275.51L1365.05 1090.65C1376.39 1074.68 1378.37 1053.97 1370.26 1036.22L1303.27 889.655C1294.34 870.111 1274.74 857.544 1253.08 857.475L1017.05 856.719C997.324 856.656 979.02 866.987 968.976 883.853L867.523 1054.2C856.859 1072.11 857.255 1094.42 868.545 1111.88L974.353 1275.5C984.634 1291.4 1002.44 1300.93 1021.51 1300.72L1188.86 1298.92C1206.72 1298.73 1223.43 1290.01 1233.73 1275.51Z" fill="#4DFF88"/>
</g>
<g opacity="0.7" filter="url(#filter5_f_35_2953)">
<path d="M1268.5 1362.17L1372.06 1217.35C1383.59 1201.23 1386.03 1180.42 1378.53 1162.17L1327.48 1037.81C1318.81 1016.69 1298.39 1002.66 1275.39 1002.02L1098.6 997.101C1077.41 996.511 1057.54 1007.41 1046.74 1025.54L963.745 1164.9C953.301 1182.43 952.924 1204.1 962.755 1221.93L1037.84 1358.1C1048.12 1376.73 1067.92 1388.22 1089.36 1387.99L1221.55 1386.57C1240.22 1386.37 1257.68 1377.29 1268.5 1362.17Z" fill="#4DFF88"/>
</g>
<path opacity="0.9" d="M1431.08 1166.57L1281.79 1333.13C1273.01 1342.91 1260.66 1348.81 1247.49 1349.48L1016.24 1361.27C994.71 1362.36 975.01 1349.41 967.662 1329.33L883.848 1100.24C878.461 1085.52 880.551 1069.11 889.464 1056.13L1012.44 877.154C1023.84 860.561 1044.31 852.559 1064.02 856.989L1269.12 903.103C1280.6 905.684 1290.75 912.274 1297.73 921.672L1434 1105.28C1447.73 1123.79 1446.52 1149.35 1431.08 1166.57Z" fill="white"/>
<g opacity="0.9" filter="url(#filter6_f_35_2953)">
<path d="M1429.44 1166.42L1280.93 1333.64C1272.13 1343.56 1259.65 1349.52 1246.36 1350.17L1015.55 1361.39C994.353 1362.42 974.919 1349.84 967.365 1330.18L878.579 1099.22C872.716 1083.97 874.955 1066.8 884.542 1053.49L1012.55 875.744C1023.96 859.903 1043.75 852.275 1062.91 856.335L1275.29 901.339C1287.59 903.944 1298.39 911.13 1305.48 921.415L1433.2 1106.67C1445.87 1125.06 1444.33 1149.66 1429.44 1166.42Z" fill="white"/>
</g>
<g opacity="0.8" filter="url(#filter7_f_35_2953)">
<path d="M1425.93 1165.7L1273.95 1337.55C1264.79 1347.92 1251.65 1353.96 1237.78 1354.21L1014.68 1358.11C994.917 1358.46 976.904 1347.03 968.958 1329.1L869.924 1105.72C862.655 1089.33 865.061 1070.27 876.188 1056.11L1016.31 877.765C1027.41 863.633 1045.41 856.649 1063.2 859.571L1282.58 895.613C1296.78 897.946 1309.21 906.341 1316.6 918.579L1431.21 1108.51C1442.16 1126.65 1440.03 1149.76 1425.93 1165.7Z" fill="white"/>
</g>
<g opacity="0.8" filter="url(#filter8_f_35_2953)">
<path d="M1414.01 1167.89L1290.66 1325.07C1281.42 1336.84 1267.28 1343.79 1252.26 1343.93L1028.61 1346.13C1008.92 1346.32 991.049 1334.84 983.198 1316.95L895.471 1117.05C888.49 1101.14 890.582 1082.73 900.963 1068.71L1026.46 899.274C1037.15 884.836 1054.94 877.347 1072.81 879.764L1267.64 906.123C1282.15 908.086 1295 916.366 1302.69 928.708L1417.08 1112.31C1427.87 1129.62 1426.64 1151.79 1414.01 1167.89Z" fill="white"/>
</g>
<g opacity="0.7" filter="url(#filter9_f_35_2953)">
<path d="M1426.05 1165.05L1268.35 1339.93C1258.82 1350.5 1245.14 1356.45 1230.87 1356.23L1013.09 1352.9C994.57 1352.62 977.814 1342.03 969.749 1325.51L864.379 1109.72C856.002 1092.56 858.504 1072.11 870.78 1057.38L1019.94 878.431C1031.04 865.124 1048.38 858.6 1065.54 861.275L1289.91 896.241C1304.69 898.543 1317.58 907.402 1324.94 920.307L1432.26 1108.53C1442.62 1126.71 1440.12 1149.45 1426.05 1165.05Z" fill="white"/>
</g>
<g opacity="0.7" filter="url(#filter10_f_35_2953)">
<path d="M1411.39 1168.36L1294.73 1321.53C1285.14 1334.12 1270.01 1341.36 1254.12 1340.94L1030.28 1335.1C1012.38 1334.64 996.187 1324.55 988.003 1308.78L890.541 1120.98C882.171 1104.86 883.549 1085.42 894.118 1070.56L1013.54 902.643C1024.08 887.821 1042.03 879.997 1060.13 882.327L1272.1 909.61C1287.16 911.549 1300.45 920.29 1308.1 933.287L1414.67 1114.39C1424.65 1131.36 1423.36 1152.64 1411.39 1168.36Z" fill="white"/>
</g>
</g>
<defs>
<filter id="filter0_f_35_2953" x="878.347" y="796.639" width="620.35" height="659.043" filterUnits="userSpaceOnUse" color-interpolation-filters="sRGB">
<feFlood flood-opacity="0" result="BackgroundImageFix"/>
<feBlend mode="normal" in="SourceGraphic" in2="BackgroundImageFix" result="shape"/>
<feGaussianBlur stdDeviation="46.7008" result="effect1_foregroundBlur_35_2953"/>
</filter>
<filter id="filter1_f_35_2953" x="926.2" y="711.495" width="726.931" height="697.249" filterUnits="userSpaceOnUse" color-interpolation-filters="sRGB">
<feFlood flood-opacity="0" result="BackgroundImageFix"/>
<feBlend mode="normal" in="SourceGraphic" in2="BackgroundImageFix" result="shape"/>
<feGaussianBlur stdDeviation="62.7798" result="effect1_foregroundBlur_35_2953"/>
</filter>
<filter id="filter2_f_35_2953" x="615.281" y="789.533" width="736.712" height="744.899" filterUnits="userSpaceOnUse" color-interpolation-filters="sRGB">
<feFlood flood-opacity="0" result="BackgroundImageFix"/>
<feBlend mode="normal" in="SourceGraphic" in2="BackgroundImageFix" result="shape"/>
<feGaussianBlur stdDeviation="65.0306" result="effect1_foregroundBlur_35_2953"/>
</filter>
<filter id="filter3_f_35_2953" x="380.185" y="853.027" width="842.918" height="948.547" filterUnits="userSpaceOnUse" color-interpolation-filters="sRGB">
<feFlood flood-opacity="0" result="BackgroundImageFix"/>
<feBlend mode="normal" in="SourceGraphic" in2="BackgroundImageFix" result="shape"/>
<feGaussianBlur stdDeviation="104.633" result="effect1_foregroundBlur_35_2953"/>
</filter>
<filter id="filter4_f_35_2953" x="794.576" y="791.502" width="645.84" height="574.44" filterUnits="userSpaceOnUse" color-interpolation-filters="sRGB">
<feFlood flood-opacity="0" result="BackgroundImageFix"/>
<feBlend mode="normal" in="SourceGraphic" in2="BackgroundImageFix" result="shape"/>
<feGaussianBlur stdDeviation="32.6085" result="effect1_foregroundBlur_35_2953"/>
</filter>
<filter id="filter5_f_35_2953" x="887.242" y="928.682" width="563.976" height="527.71" filterUnits="userSpaceOnUse" color-interpolation-filters="sRGB">
<feFlood flood-opacity="0" result="BackgroundImageFix"/>
<feBlend mode="normal" in="SourceGraphic" in2="BackgroundImageFix" result="shape"/>
<feGaussianBlur stdDeviation="34.1983" result="effect1_foregroundBlur_35_2953"/>
</filter>
<filter id="filter6_f_35_2953" x="871.078" y="850.976" width="574.955" height="514.753" filterUnits="userSpaceOnUse" color-interpolation-filters="sRGB">
<feFlood flood-opacity="0" result="BackgroundImageFix"/>
<feBlend mode="normal" in="SourceGraphic" in2="BackgroundImageFix" result="shape"/>
<feGaussianBlur stdDeviation="2.14111" result="effect1_foregroundBlur_35_2953"/>
</filter>
<filter id="filter7_f_35_2953" x="856.6" y="849.739" width="590.747" height="517.555" filterUnits="userSpaceOnUse" color-interpolation-filters="sRGB">
<feFlood flood-opacity="0" result="BackgroundImageFix"/>
<feBlend mode="normal" in="SourceGraphic" in2="BackgroundImageFix" result="shape"/>
<feGaussianBlur stdDeviation="4.58809" result="effect1_foregroundBlur_35_2953"/>
</filter>
<filter id="filter8_f_35_2953" x="882.22" y="870.14" width="551.358" height="485.169" filterUnits="userSpaceOnUse" color-interpolation-filters="sRGB">
<feFlood flood-opacity="0" result="BackgroundImageFix"/>
<feBlend mode="normal" in="SourceGraphic" in2="BackgroundImageFix" result="shape"/>
<feGaussianBlur stdDeviation="4.58809" result="effect1_foregroundBlur_35_2953"/>
</filter>
<filter id="filter9_f_35_2953" x="841.123" y="842.331" width="615.838" height="532.255" filterUnits="userSpaceOnUse" color-interpolation-filters="sRGB">
<feFlood flood-opacity="0" result="BackgroundImageFix"/>
<feBlend mode="normal" in="SourceGraphic" in2="BackgroundImageFix" result="shape"/>
<feGaussianBlur stdDeviation="9.17618" result="effect1_foregroundBlur_35_2953"/>
</filter>
<filter id="filter10_f_35_2953" x="866.754" y="863.569" width="572.947" height="495.741" filterUnits="userSpaceOnUse" color-interpolation-filters="sRGB">
<feFlood flood-opacity="0" result="BackgroundImageFix"/>
<feBlend mode="normal" in="SourceGraphic" in2="BackgroundImageFix" result="shape"/>
<feGaussianBlur stdDeviation="9.17618" result="effect1_foregroundBlur_35_2953"/>
</filter>
<clipPath id="clip0_35_2953">
<rect width="1636.43" height="1641.36" fill="white" transform="matrix(0.583304 -0.812254 -0.817287 -0.576231 1341.47 2275)"/>
</clipPath>
</defs>
</svg>
