<svg width="1274" height="1093" viewBox="0 0 1274 1093" fill="none" xmlns="http://www.w3.org/2000/svg">
<g opacity="0.8" filter="url(#filter0_f_155_19166)">
<path d="M600.778 424.864L673.912 565.148C683.403 583.355 699.536 597.276 719.033 604.085L847.8 649.055C869.741 656.717 893.965 654.69 914.355 643.486L983.115 605.701C1015.02 588.168 1031.37 551.782 1023.14 516.603L975.405 312.565C969.441 287.069 951.375 266.059 926.94 256.2L756.294 187.354C714.782 170.606 667.336 190.346 650.178 231.505L597.894 356.922C588.726 378.915 589.781 403.77 600.778 424.864Z" fill="#29CCB1"/>
</g>
<g opacity="0.7" filter="url(#filter1_f_155_19166)">
<path d="M1046.48 172.463L856.037 129.821C836.32 125.407 815.677 131.473 801.522 145.842L688.334 260.743C672.912 276.399 667.708 299.328 674.893 319.97L741.758 512.069C748.906 532.604 767.099 547.377 788.817 550.281L966.319 574.017C986.801 576.756 1007.24 568.503 1020.01 552.338L1135.11 406.605C1147.8 390.534 1151.02 369.037 1143.58 350.055L1087.74 207.694C1080.75 189.873 1065.29 176.675 1046.48 172.463Z" fill="#3DE8CA"/>
</g>
<g opacity="0.7" filter="url(#filter2_f_155_19166)">
<path d="M829.51 414.051L690.756 234.294C678.589 218.532 659.299 209.824 639.292 211.062L481.313 220.835C455.936 222.405 434.237 239.599 427.077 263.812L367.735 464.47C361.864 484.322 366.746 505.745 380.642 521.113L520.626 675.928C534.589 691.37 555.655 698.491 576.263 694.735L753.571 662.423C776.854 658.179 795.518 640.82 801.284 618.044L840.066 464.867C844.54 447.196 840.654 428.488 829.51 414.051Z" fill="#3DE8CA"/>
</g>
<g opacity="0.5" filter="url(#filter3_f_155_19166)">
<path d="M633.776 721.512L628.683 495.87C628.234 475.998 617.852 457.675 600.984 446.987L468.461 363.017C447.066 349.46 419.355 350.704 399.199 366.126L232.942 493.332C216.416 505.976 207.628 526.174 209.705 546.738L230.533 752.951C232.619 773.613 245.376 791.688 264.225 800.688L425.613 877.755C446.908 887.924 472.268 884.773 490.447 869.7L612.104 768.827C626.209 757.133 634.187 739.714 633.776 721.512Z" fill="#3DE8CA"/>
</g>
<g opacity="0.7" filter="url(#filter4_f_155_19166)">
<path d="M853.682 566.861L984.998 381.999C996.342 366.029 998.327 345.318 990.214 327.567L923.226 181.007C914.293 161.463 894.692 148.896 873.034 148.826L637.002 148.071C617.277 148.008 598.973 158.339 588.928 175.205L487.475 345.555C476.812 363.46 477.207 385.767 488.498 403.227L594.306 566.855C604.587 582.755 622.396 592.278 641.464 592.073L808.813 590.272C826.678 590.08 843.379 581.366 853.682 566.861Z" fill="#4DFF88"/>
</g>
<g opacity="0.7" filter="url(#filter5_f_155_19166)">
<path d="M888.449 653.518L992.018 508.696C1003.54 492.583 1005.98 471.771 998.487 453.517L947.432 329.158C938.763 308.042 918.344 294.015 895.345 293.374L718.556 288.451C697.363 287.861 677.492 298.756 666.695 316.886L583.698 456.246C573.253 473.784 572.877 495.454 582.708 513.281L657.795 649.446C668.072 668.084 687.871 679.573 709.315 679.342L841.5 677.92C860.169 677.719 877.633 668.642 888.449 653.518Z" fill="#4DFF88"/>
</g>
<defs>
<filter id="filter0_f_155_19166" x="498.301" y="87.99" width="620.35" height="659.043" filterUnits="userSpaceOnUse" color-interpolation-filters="sRGB">
<feFlood flood-opacity="0" result="BackgroundImageFix"/>
<feBlend mode="normal" in="SourceGraphic" in2="BackgroundImageFix" result="shape"/>
<feGaussianBlur stdDeviation="46.7008" result="effect1_foregroundBlur_155_19166"/>
</filter>
<filter id="filter1_f_155_19166" x="546.153" y="2.84559" width="726.932" height="697.249" filterUnits="userSpaceOnUse" color-interpolation-filters="sRGB">
<feFlood flood-opacity="0" result="BackgroundImageFix"/>
<feBlend mode="normal" in="SourceGraphic" in2="BackgroundImageFix" result="shape"/>
<feGaussianBlur stdDeviation="62.7798" result="effect1_foregroundBlur_155_19166"/>
</filter>
<filter id="filter2_f_155_19166" x="235.234" y="80.884" width="736.711" height="744.899" filterUnits="userSpaceOnUse" color-interpolation-filters="sRGB">
<feFlood flood-opacity="0" result="BackgroundImageFix"/>
<feBlend mode="normal" in="SourceGraphic" in2="BackgroundImageFix" result="shape"/>
<feGaussianBlur stdDeviation="65.0306" result="effect1_foregroundBlur_155_19166"/>
</filter>
<filter id="filter3_f_155_19166" x="0.138199" y="144.377" width="842.919" height="948.547" filterUnits="userSpaceOnUse" color-interpolation-filters="sRGB">
<feFlood flood-opacity="0" result="BackgroundImageFix"/>
<feBlend mode="normal" in="SourceGraphic" in2="BackgroundImageFix" result="shape"/>
<feGaussianBlur stdDeviation="104.633" result="effect1_foregroundBlur_155_19166"/>
</filter>
<filter id="filter4_f_155_19166" x="414.529" y="82.8534" width="645.84" height="574.44" filterUnits="userSpaceOnUse" color-interpolation-filters="sRGB">
<feFlood flood-opacity="0" result="BackgroundImageFix"/>
<feBlend mode="normal" in="SourceGraphic" in2="BackgroundImageFix" result="shape"/>
<feGaussianBlur stdDeviation="32.6085" result="effect1_foregroundBlur_155_19166"/>
</filter>
<filter id="filter5_f_155_19166" x="507.194" y="220.032" width="563.976" height="527.71" filterUnits="userSpaceOnUse" color-interpolation-filters="sRGB">
<feFlood flood-opacity="0" result="BackgroundImageFix"/>
<feBlend mode="normal" in="SourceGraphic" in2="BackgroundImageFix" result="shape"/>
<feGaussianBlur stdDeviation="34.1983" result="effect1_foregroundBlur_155_19166"/>
</filter>
</defs>
</svg>
