<svg width="158" height="30" viewBox="0 0 158 30" fill="none" xmlns="http://www.w3.org/2000/svg">
<path d="M71.1816 15.0906C71.1816 21.0613 67.5277 23.884 62.9542 23.884H60.1591V20.3014H62.7364C65.495 20.3014 67.3339 18.8179 67.3339 15.0906C67.3339 11.3995 65.5948 9.55363 62.6546 9.55363C59.8233 9.55363 57.7997 11.2909 57.7997 15.0182V30H53.9883V6.44142H57.7997V8.46821H58.3441C59.6146 6.7674 61.493 6.00717 63.4531 6.00717C67.6638 6.00717 71.1816 9.04698 71.1816 15.0906ZM46.1329 13.5343L43.5919 13.2809C41.5955 13.1 40.5428 12.5572 40.5428 11.3992C40.5428 10.024 41.8859 9.22794 43.8097 9.22794C45.8062 9.22794 47.0766 10.1688 47.1855 11.5077H50.8517C50.7065 8.10612 48.0568 6.00717 43.8461 6.00717C39.5991 6.00717 36.7314 8.25085 36.7314 11.544C36.7314 14.2943 38.4738 16.0674 42.4304 16.4655L45.0075 16.7188C46.5685 16.8635 47.6212 17.1892 47.6212 18.6729C47.6212 20.012 46.641 20.9889 44.0639 20.9889C41.6906 20.9889 40.5213 19.9153 40.1109 18.4762H36.1447C36.5398 21.7658 39.3118 24.3182 44.0639 24.3182C48.5286 24.3182 51.4324 21.966 51.4324 18.4921C51.4324 15.416 49.3998 13.86 46.1329 13.5343ZM85.943 18.4762C85.3451 19.8452 83.9164 20.8805 81.8891 20.8805C79.0942 20.8805 77.0252 19.0711 77.0252 15.1628C77.0252 11.4354 78.9489 9.37267 81.9253 9.37267C84.5752 9.37267 86.0998 10.965 86.2451 13.3533H79.3845V16.1039H89.9838V14.2943C89.9838 9.2641 86.6443 6.00717 81.8891 6.00717C77.4607 6.00717 73.2136 9.01081 73.2136 15.1628C73.2136 21.3146 77.4607 24.3182 81.8891 24.3182C85.9396 24.3182 88.8279 21.8309 89.7253 18.4762H85.943ZM25.8601 6.00717C21.6858 6.00717 18.5641 8.17873 18.2011 11.5077H22.3028C22.5932 10.2776 23.7184 9.37295 25.8601 9.37295C28.6189 9.37295 29.5263 10.8207 29.5263 12.5937V18.5644C27.9655 20.3378 26.1505 21.1699 24.3356 21.1699C22.4481 21.1699 21.1413 20.2653 21.1413 18.6371C21.1413 17.0806 22.1576 16.1039 24.1178 16.1039H27.1669V13.3533H24.0089C19.653 13.3533 17.2211 15.5249 17.2211 18.8539C17.2211 21.966 19.5804 24.3182 23.4644 24.3182C25.6423 24.3182 27.5662 23.45 28.9818 22.4002H29.5263V23.884H33.3377V12.2315C33.3377 7.92516 30.3975 6.00717 25.8601 6.00717ZM0 23.884H3.81139V0H0V23.884ZM16.0077 6.44142H11.3615L5.80782 13.7155V15.9953L11.5067 23.884H16.2255L9.54661 14.8371L16.0077 6.44142ZM153.789 6.44142L150.668 13.3533C149.905 15.0182 149.18 16.6464 148.962 17.7323H148.417C148.199 16.6464 147.437 15.0542 146.675 13.3898L143.553 6.44142H139.342L146.675 22.1108L143.045 30H147.11L158 6.44142H153.789ZM138.499 6.44142H133.853L128.299 13.7155V15.9953L133.998 23.884H138.717L132.038 14.8371L138.499 6.44142ZM114.636 13.5343L112.095 13.2809C110.099 13.1 109.046 12.5572 109.046 11.3992C109.046 10.024 110.389 9.22794 112.313 9.22794C114.309 9.22794 115.58 10.1688 115.689 11.5077H119.355C119.21 8.10612 116.56 6.00717 112.349 6.00717C108.102 6.00717 105.235 8.25085 105.235 11.544C105.235 14.2943 106.977 16.0674 110.934 16.4655L113.511 16.7188C115.072 16.8635 116.124 17.1892 116.124 18.6729C116.124 20.012 115.144 20.9889 112.567 20.9889C110.194 20.9889 109.024 19.9153 108.614 18.4762H104.648C105.043 21.7658 107.815 24.3182 112.567 24.3182C117.032 24.3182 119.936 21.966 119.936 18.4921C119.936 15.416 117.903 13.86 114.636 13.5343ZM122.492 23.884H126.303V0H122.492V23.884ZM97.3584 8.46821H96.8139V6.44142H93.0025V23.884H96.8139V14.7647C96.8139 11.6525 98.2563 9.84309 101.097 9.84309H103.51V6.00717H102.114C99.4776 6.00717 98.3573 6.99829 97.3584 8.46821Z" fill="#00A88E"/>
</svg>
